<svg width="94" height="89" viewBox="0 0 94 89" fill="none" xmlns="http://www.w3.org/2000/svg">
<g filter="url(#filter0_d_312_5869)">
<path d="M45.6223 86.6083C69.3151 86.6083 88.522 67.4051 88.522 43.7167C88.522 20.0284 69.3151 0.825195 45.6223 0.825195C21.9295 0.825195 2.72266 20.0284 2.72266 43.7167C2.72266 67.4051 21.9295 86.6083 45.6223 86.6083Z" fill="#FFCC5E"/>
</g>
<path d="M45.6242 81.6745C66.5911 81.6745 83.5882 64.6806 83.5882 43.7176C83.5882 22.7546 66.5911 5.76074 45.6242 5.76074C24.6572 5.76074 7.66016 22.7546 7.66016 43.7176C7.66016 64.6806 24.6572 81.6745 45.6242 81.6745Z" fill="#DE8900"/>
<mask id="mask0_312_5869" style="mask-type:luminance" maskUnits="userSpaceOnUse" x="7" y="5" width="77" height="77">
<path d="M45.6203 81.6745C66.5872 81.6745 83.5843 64.6806 83.5843 43.7176C83.5843 22.7546 66.5872 5.76074 45.6203 5.76074C24.6533 5.76074 7.65625 22.7546 7.65625 43.7176C7.65625 64.6806 24.6533 81.6745 45.6203 81.6745Z" fill="white"/>
</mask>
<g mask="url(#mask0_312_5869)">
<path d="M63.6371 33.3614C63.5205 33.3486 63.3595 33.4019 63.3086 33.2507C63.4294 33.257 63.582 33.2166 63.6371 33.3614Z" fill="#211A04"/>
<path d="M63.4189 41.493C64.1347 46.9005 60.9884 51.3411 56.1678 53.4688C56.6982 54.1311 57.4118 54.5912 57.9827 55.2237C59.3588 56.7486 60.3472 58.6314 61.1695 60.4992C63.0568 58.9189 64.6693 56.7571 67.1574 56.1033C67.0786 55.5453 66.9614 54.8446 66.938 54.2909C66.7697 50.3188 67.8071 43.9977 69.5198 40.3962C69.8989 39.5997 70.2887 39.293 71.1792 39.1993C72.8513 39.0246 75.333 39.4868 76.8625 40.1896C77.3609 40.4196 78.2833 40.8349 78.3259 41.4526C78.3728 42.1128 78.294 43.4737 78.2514 44.183C78.1299 46.1274 77.7699 48.385 77.3205 50.2826C76.7581 52.6531 75.9188 55.1407 74.5363 57.149C76.4471 58.5163 75.9998 61.5662 73.418 61.4874C73.7332 62.2264 73.6417 62.9505 73.3605 63.681C73.239 63.9984 72.8066 64.5159 72.7747 64.6416C72.7108 64.878 72.9302 65.4892 72.862 65.928C72.7406 66.6947 71.2111 68.079 70.4805 68.1642C69.72 68.2515 70.1886 67.4167 69.6838 67.0887C69.7008 67.5104 69.5879 68.2409 69.9053 68.5689C70.2696 68.9416 71.9183 69.3164 72.5276 69.6828C73.0345 69.9873 73.7971 70.6369 72.9706 71.0905C72.1527 71.5378 68.7401 71.0863 67.6835 70.9031C66.5737 70.7114 65.4916 70.3536 64.4095 70.0576C65.0719 72.345 65.5704 74.692 65.9325 77.0475C66.9039 83.3879 67.3427 90.2969 66.578 96.667C66.5269 97.0908 66.3202 97.5615 66.2798 98.0173C66.169 99.2632 66.5759 100.381 65.3254 101.238C63.5148 102.477 58.2852 103.02 56.0038 103.231C48.4587 103.927 40.0913 103.925 32.6165 102.667C31.1063 102.413 26.716 101.572 25.9789 100.185C25.849 99.9405 25.7062 99.374 25.6509 99.0843C25.2909 97.2186 25.0438 95.2678 24.7583 93.385C23.3204 83.9118 22.773 74.6537 22.7623 65.0526C22.7623 63.6832 22.4471 63.3211 22.2468 62.0603C21.3117 56.1225 25.7254 52.2654 31.0636 51.0472C31.5834 50.928 30.9806 50.7895 30.8613 50.7043C26.4774 47.5778 23.1458 42.7879 23.4227 37.1462C23.4461 36.6797 23.7997 35.2059 23.7635 34.9695C23.7571 34.9269 23.2523 34.6416 23.1117 34.3881C22.7666 33.7641 22.8667 32.7503 23.3141 32.2051C23.7614 31.6599 24.5176 31.6364 24.8584 31.3319C25.1993 31.0273 26.0449 29.0765 26.5668 28.4269C26.7884 28.1521 27.8833 27.2257 27.9131 27.1362C28.0281 26.7955 27.9855 25.5623 28.0537 25.0789C28.7205 20.306 31.004 13.1479 34.2483 9.52085C35.5136 8.10455 36.453 8.92664 37.6587 9.95958C40.8284 12.6772 43.506 16.7088 44.3048 20.8385C46.516 20.5254 48.8485 21.1601 50.9403 21.8182C52.3335 20.0015 53.9908 18.3104 55.7886 16.8877C56.4596 16.3574 58.3044 14.9411 59.0776 14.9007C59.7039 14.8666 59.9148 15.1051 60.2812 15.5758C62.6095 18.5873 61.6956 25.8669 60.9735 29.43C60.9202 29.6941 60.72 30.0306 60.7072 30.2478C60.6944 30.4651 61.1098 31.4362 61.2248 31.7131C61.4613 32.1859 60.9032 32.237 60.6753 31.8239L60.2854 31.4618C57.5503 25.1129 51.1235 21.6968 44.5605 21.4753L44.4156 21.2772L44.3474 21.5988C44.7756 21.9268 44.3602 22.6637 44.0854 22.0461L43.8447 21.8757C42.3664 16.9687 39.7782 12.0233 35.2963 9.41436L35.3325 9.64011C31.6345 13.8443 30.1264 19.3668 28.893 24.8595C28.8738 24.9468 28.8291 25.0277 28.7801 25.1087C28.7311 25.1896 28.6629 25.2705 28.5969 25.3451C28.5436 26.9786 28.5479 28.6185 28.6076 30.2627C28.6672 30.5226 28.8951 30.5609 29.1465 30.5098L29.5427 30.2862C31.7986 29.8283 34.0651 29.3895 36.338 28.97C37.0281 28.9231 40.6622 29.5684 41.2395 29.8666C41.3524 29.9241 41.4568 29.9965 41.5612 30.0711C42.4665 30.2329 42.1108 30.727 41.3418 30.5098L41.0329 30.6759C39.5141 30.3394 37.9952 30.1328 36.4743 30.0583C35.6542 30.333 35.8928 32.0283 36.8002 32.2115C37.1496 33.3062 37.2135 34.4861 36.9919 35.7512C36.4274 41.5207 46.3839 43.527 48.6206 38.6328C49.1105 37.5594 50.3503 33.1465 49.3235 32.3393C48.3863 32.1071 47.4618 31.8707 46.5479 31.6322L46.5053 31.5001C45.8876 31.1658 46.2561 30.8995 46.8355 31.0614L46.9974 30.8697C48.218 30.9081 50.5612 31.2318 50.5803 32.8099C51.3834 32.6438 52.1418 32.7162 52.8532 33.0251C53.0492 32.4628 54.1569 31.9027 54.5254 32.3776L57.0987 32.335C57.5226 32.9186 56.6705 33.0038 56.1742 32.9271C55.925 33.2338 55.5458 33.2295 55.2944 32.9271C55.0218 32.9143 54.764 32.9505 54.5254 33.0378C54.4999 33.2295 54.3167 33.353 53.9801 33.4063C53.2516 33.9153 53.5988 37.6083 53.7138 38.5028C53.7628 38.8883 53.9396 40.2237 54.2996 40.032C53.9929 38.588 53.6947 36.9673 53.7884 35.4871C53.8416 34.6543 53.9844 34.1006 54.7576 33.6917C55.0622 33.5298 56.0123 33.221 56.1721 33.5873C57.4587 33.4361 56.9773 34.288 55.9527 34.2454C55.942 34.3455 55.9037 34.3413 55.8419 34.2454C54.8364 34.731 54.7789 35.0057 54.7896 36.0813C54.8023 37.3293 54.9834 38.571 55.2369 39.7892L55.0729 40.0682C55.4137 41.0011 55.8951 41.8487 56.5193 42.609L56.5022 42.9243C56.5725 43.0094 56.6087 43.1074 56.6066 43.216C56.5938 43.9359 54.0099 45.8399 53.1344 45.8783C51.8073 48.4531 55.4329 47.0219 56.3638 46.2382C56.8132 45.7356 57.6696 45.5247 57.1967 46.4341C56.7089 47.3734 55.3264 47.9378 54.3891 48.27C53.6606 50.4296 52.2291 51.6819 49.8753 51.4561C46.3051 51.1154 45.1654 49.2177 43.4741 46.383C43.0139 46.0188 41.1096 44.4428 41.542 43.8464C41.7976 43.4929 42.8521 44.3129 42.6603 44.6813C45.3273 46.6045 48.2989 47.531 51.5134 46.7557C51.8052 46.5981 51.9437 45.9933 51.999 45.6695C51.1129 45.7569 50.1096 44.7197 49.5685 44.0552C48.9465 43.2927 48.2286 42.0574 48.8613 41.1118C49.0274 40.8648 49.2831 40.5176 49.5813 40.7263C49.5323 40.3281 50.8871 39.9703 51.2237 39.9724L51.3941 40.1768C51.4047 40.0917 51.4282 39.9681 51.4899 39.9575C51.8755 39.8936 53.03 39.8553 53.2068 40.1768C52.9193 39.8957 52.7552 39.4825 52.7126 38.9373L52.4634 36.4221C51.835 35.9663 50.9829 35.8193 50.3418 36.2879C50.0584 37.7936 49.5089 39.146 48.6951 40.343L48.2606 40.5091C48.1008 41.3035 46.7908 41.7848 46.0282 42.0063C44.111 42.5664 41.9489 42.3237 40.0828 41.6869L39.9081 41.3866C38.5789 41.3567 37.141 39.9106 36.5212 38.7861C36.2272 38.2537 35.7245 37.1824 36.1718 36.7181C36.0866 36.7181 35.9567 36.6989 35.9524 36.6435C35.8629 35.7682 35.8502 33.6981 35.9524 32.8398L36.1718 32.7098L35.4966 32.942C32.1884 33.1763 28.697 33.5511 25.4549 34.2539C24.688 34.4201 24.377 36.6095 24.3877 37.2718C24.5091 44.6898 29.0357 49.1602 35.4028 52.2633L35.8118 52.2399C39.2755 53.9011 43.374 54.5422 47.2061 54.5315C53.5945 54.5145 61.9193 51.2261 62.5221 43.9657L62.7607 43.5845C62.8076 43.1351 62.8438 42.6964 62.8715 42.2662C62.6904 41.6549 62.8118 40.6986 63.4211 41.4973L63.4189 41.493ZM59.6826 15.7867C59.5782 15.6738 59.5484 15.5588 59.3567 15.5013C58.871 15.3564 57.2968 16.6045 56.8345 16.9495C54.8918 18.4063 53.0492 20.1761 51.4431 21.9928L54.9557 23.8053C55.5799 22.3144 56.4405 20.8023 57.4416 19.5329C58.0871 18.7151 58.9669 17.3052 59.4121 19.0793C59.8381 20.7767 59.8999 23.3154 59.7912 25.0682C59.738 25.9329 59.3354 27.2896 59.3673 28.0414C59.3801 28.3672 59.6741 28.5312 59.7912 28.7485C59.9446 29.0317 60.1193 29.3235 60.2322 29.6281C60.294 29.6707 60.3962 29.5237 60.4239 29.4364C60.7242 28.4567 60.8989 26.378 60.999 25.2876C61.2291 22.8106 61.4506 17.7226 59.6805 15.7867H59.6826ZM59.0222 27.5409C59.214 24.9575 59.5505 22.5253 59.1011 19.9376C59.067 19.7374 58.9029 18.7534 58.7474 18.7534C57.4289 20.3997 56.1486 22.1249 55.2944 24.0672C56.7025 25.0448 57.84 26.312 59.0201 27.5388L59.0222 27.5409ZM35.5093 29.9603C32.4568 30.8314 29.2445 31.0614 26.1472 31.7493C25.5145 31.8899 24.1171 32.122 23.7678 32.6651C23.4184 33.2082 23.3652 34.5926 24.2407 34.4669C24.7093 34.3988 24.7051 33.5469 25.2653 33.5043C28.6203 32.959 31.9881 32.1582 35.3986 32.1561C35.2835 31.3894 35.1621 30.6866 35.5072 29.9603H35.5093ZM52.6487 35.3423C52.8447 34.4818 53.0045 33.7875 51.9948 33.5277C51.6348 33.434 50.5974 33.4957 50.3929 33.8003C50.28 33.9685 50.3226 35.0356 50.2331 35.3423C51.0469 34.8524 51.8244 34.993 52.6487 35.3423ZM71.0833 39.6551C69.9756 39.8148 70.5848 40.2471 71.1941 40.5815C72.5553 41.3312 75.6717 41.9147 77.1948 41.7018C77.8147 41.6144 78.0469 41.4228 77.4461 41.0309C76.1148 40.1641 72.6362 39.4293 71.0812 39.6529L71.0833 39.6551ZM69.9011 40.9436C69.8691 41.0181 69.8201 41.0884 69.7903 41.1629C69.458 42.0255 69.164 42.9093 68.9105 43.7996C68.8402 44.0466 68.9148 44.1105 68.9105 44.1297C68.7529 44.7282 68.4824 45.2862 68.3609 45.9975C67.8859 47.0305 67.8241 48.1805 67.7027 49.2923C67.4982 51.158 67.3065 53.6455 67.4833 55.5006C67.5366 56.065 67.577 55.9713 68.0329 55.9947C68.214 56.0032 68.4014 55.9798 68.5825 55.9947C69.8435 56.0948 70.9704 56.5293 72.0248 57.2236C72.1931 57.3343 72.502 57.739 72.6469 57.6431C72.7278 57.0915 73.3221 57.0361 73.6374 56.7657C73.5543 57.1554 74.1231 56.9978 74.2424 56.8764C75.5098 54.638 76.445 52.1462 76.9903 49.6288C77.0393 49.4052 77.2438 48.5852 77.0414 48.5277C76.8646 48.4766 76.6878 48.5192 76.3832 48.417C77.4142 48.4787 77.0691 48.2679 77.1756 47.7354C77.3758 46.7216 77.4781 45.923 77.5931 44.9007C77.6954 43.9913 77.9446 43.0946 77.8125 42.1533C77.346 42.2321 76.871 42.0851 76.4386 42.066C74.5555 41.9786 72.8833 41.8296 71.111 40.9989C70.8106 40.8584 70.4102 40.4729 70.1673 40.4026C69.9245 40.3323 69.9714 40.7753 69.8989 40.9457L69.9011 40.9436ZM53.6393 48.1954C52.9832 48.4808 52.2184 47.4543 51.9351 47.4245C51.556 47.3861 50.3971 47.7375 49.854 47.7588C48.8315 47.7993 47.3765 47.6289 46.3881 47.3691C45.8173 47.2179 45.2932 46.9559 44.7394 46.7664C44.8928 46.9602 45.1697 47.6737 45.3614 47.7376C45.6852 47.844 46.369 47.712 46.7716 47.7567C48.5375 47.9505 50.8615 48.6257 52.1716 49.8354C52.4357 49.8822 53.4625 48.4787 53.6393 48.1954ZM45.6192 48.1954C46.4031 49.5521 47.8367 50.4637 49.4109 50.6085C49.7624 50.6404 51.8755 50.666 51.8797 50.2251C50.2906 48.796 47.7195 48.2018 45.6192 48.1933V48.1954ZM37.9271 56.7635L36.3912 53.522C35.701 53.1855 34.9512 52.9086 34.2632 52.5743C33.9628 52.4294 32.101 51.3944 31.9945 51.4923L33.2215 56.5271L37.9271 56.7635ZM35.6201 57.2023H33.8073C33.3451 57.2023 32.7827 56.8913 32.5676 56.4632L31.4428 51.5988C26.635 53.0045 22.3086 55.9968 22.9029 61.6216C23.6847 69.0183 30.4352 74.66 36.7874 77.5097C41.2544 79.5138 42.5623 79.2646 47.2019 78.0656C50.4099 77.2371 53.5136 76.0636 56.7131 75.2159C55.1879 72.0021 52.9257 67.6914 54.845 64.2327L43.2078 67.372C41.6762 68.3623 40.9072 69.9426 39.9018 71.3717C39.7718 69.7126 41.067 68.5199 42.098 67.4188C41.3993 67.4039 40.7155 67.6041 40.0807 67.8724L37.7034 69.5038C38.0655 68.6967 38.7706 67.9853 39.5354 67.5466C39.6483 67.4806 40.445 67.2399 40.3406 67.0908C39.8102 66.8161 39.2712 66.2261 38.8558 65.7725C35.4305 62.0326 32.8061 57.4536 28.5841 54.5102C28.6565 54.359 28.8632 54.5273 28.9697 54.5635C31.0615 55.2919 32.525 57.4493 34.0225 58.9572L35.6158 57.2023H35.6201ZM44.7394 55.3366C42.1086 55.3004 39.5524 54.5337 37.0494 53.7989L38.5874 56.5995C39.5183 57.4642 40.445 58.3609 41.5186 59.0552L44.7415 55.3366H44.7394ZM57.8144 62.8057C58.1744 62.5544 59.0393 62.8227 59.248 62.7461C59.3354 62.7141 60.4686 61.4597 60.507 61.3745C60.5709 61.2382 60.573 61.1658 60.5432 61.021C60.4516 60.5567 59.6464 59.0509 59.3695 58.5568C58.8646 57.6517 58.1553 56.6144 57.48 55.8328C57.2648 55.5836 55.7609 54.0289 55.6118 53.9608C55.3583 53.8457 55.2007 53.9693 54.9557 54.0183C54.8663 54.1375 56.3254 55.7498 56.4745 56.0671C56.9453 57.0574 55.4776 57.0681 54.8492 57.428L54.8599 57.6772C55.2305 58.1841 56.6364 59.6409 56.6002 60.2138C56.5597 60.8378 54.5872 63.3424 54.7342 63.4617C55.5479 63.3232 56.3403 62.9953 57.1519 62.9122L57.2627 56.9808C57.5758 56.9297 57.4459 57.0447 57.497 57.2342C57.5971 57.6069 57.6611 58.1777 57.7015 58.5739C57.8442 59.9731 57.8038 61.3979 57.8123 62.8015L57.8144 62.8057ZM52.3207 57.7518L55.8334 56.2694L54.2975 54.3952C54.0121 54.2419 53.7224 54.5848 53.4476 54.6508C53.1429 54.7253 52.7574 54.6742 52.4421 54.7978L52.3207 57.7518ZM48.2563 55.4452L50.6187 58.9572C50.7018 58.9593 51.5773 57.7603 51.6135 57.6474C51.6987 57.3812 51.9607 55.0065 51.8797 54.8936C50.7039 55.2791 49.4748 55.3004 48.2563 55.4431V55.4452ZM44.8502 56.2141C44.5945 56.4845 44.3687 56.7891 44.0854 57.0383C44.6393 57.3514 45.11 58.9466 45.4466 59.1893C45.6767 59.3555 45.9195 59.2767 46.1687 59.2916C46.8547 59.3299 47.5576 59.2745 48.2457 59.2809C48.2393 58.8677 48.8528 57.6112 48.7526 57.3215C48.7122 57.2065 47.6322 55.5006 47.5257 55.4644C47.351 55.4069 45.7789 55.4133 45.5872 55.4686C45.3593 55.5368 45.027 56.0288 44.8502 56.2162V56.2141ZM65.7259 57.5324C63.5297 58.8635 61.9555 60.906 60.2343 62.7525C60.0703 62.9292 59.28 63.5831 59.2587 63.647C59.0734 64.1815 59.8637 64.4648 60.1704 64.8993C60.6625 65.5936 60.786 66.5073 60.6454 67.3379C60.5709 67.7851 60.1257 68.2452 60.1171 68.5668C60.1044 69.0247 60.4878 69.6934 60.5687 70.1598C62.6606 69.7232 65.1465 68.7606 66.5524 67.0887C66.7974 66.7969 67.3747 65.7342 67.5621 65.6788C68.1564 65.4977 70.6977 66.3646 70.4506 67.3613C70.5082 67.5189 70.555 67.3102 70.5614 67.3081C71.1792 66.848 72.1612 66.4604 72.1037 65.4999C72.0376 64.3903 70.6147 63.2423 69.6305 62.9101C69.2066 62.7674 68.8381 62.7823 68.4717 62.695C68.2949 62.6524 67.8795 62.5523 67.8135 62.367C69.1576 61.8494 70.7425 62.4777 71.7735 63.4042C72.2166 63.8025 72.2634 64.5393 72.649 63.4638C73.7567 60.3692 70.5742 60.1584 68.5846 59.5088C68.4355 59.4598 68.1245 59.2916 67.9456 59.2085C67.79 59.1361 67.6473 59.2724 67.707 58.9593C69.017 58.9104 70.3314 59.2107 71.5498 59.6749C71.8544 59.79 72.2336 60.086 72.4914 60.1627C72.7491 60.2393 72.6362 59.9902 72.649 59.8389C72.6511 59.8027 72.649 59.7665 72.649 59.7282C72.9238 59.4982 72.715 59.183 72.649 58.9593C72.289 57.7603 69.9181 56.7486 68.7465 56.6549C67.4876 56.5548 66.7548 56.9084 65.7259 57.5324ZM40.1638 66.2815C40.9242 66.963 43.0246 67.389 43.8596 66.5946L38.3148 57.3109C38.0442 57.0681 36.879 57.2491 36.4636 57.2214C36.1995 57.8029 34.7595 58.8827 34.5742 59.2937C34.5358 59.3768 34.4996 59.4449 34.5401 59.5386L40.1659 66.2836L40.1638 66.2815ZM43.8596 65.4424L44.9631 59.7814L43.8596 57.4238C43.6594 57.2726 41.9851 59.7559 41.6954 59.8283C41.3503 59.9156 40.1766 58.7123 39.7974 58.5227L43.8596 65.4445V65.4424ZM73.4968 57.5494C73.3519 57.5707 72.8705 57.9456 72.8705 58.0265C72.8705 58.0499 73.1091 58.2459 73.1709 58.3822C73.4947 59.085 73.4073 59.43 73.2284 60.1477C73.1304 60.5418 72.7363 60.7739 73.3583 60.8378C74.6322 60.9656 75.3394 59.7921 74.8665 58.6654C74.6897 58.2437 73.9953 57.4749 73.4968 57.5515V57.5494ZM54.3955 57.7667C54.1654 57.6197 52.4805 58.4397 52.1588 58.6335C51.7711 60.6802 51.4239 62.7631 50.5633 64.6735C50.6847 64.7864 53.4795 63.9366 53.7479 63.7386L55.8653 60.3543C55.9612 60.2159 55.925 60.1243 55.8653 59.9838C55.7311 59.66 54.8513 58.5696 54.5766 58.1862C54.4977 58.0776 54.4125 57.7816 54.3934 57.7688L54.3955 57.7667ZM51.3302 59.1808C50.1458 60.5673 49.9818 58.7953 49.1893 58.084C49.102 58.084 48.6504 59.5812 48.6291 59.7261C48.6035 59.9071 49.5153 62.6715 49.6324 63.2402C49.7283 63.7066 49.8092 64.1922 49.7943 64.6714L50.2353 63.7407C50.7252 62.2562 51.1384 60.7356 51.3302 59.1787V59.1808ZM45.289 66.2112C46.6203 65.8662 47.9517 65.4914 49.2532 65.0484L48.2521 59.9561C47.5235 59.9646 46.7865 59.9241 46.0601 59.9497C45.8407 59.9582 45.6192 59.9433 45.3997 59.9497L44.307 66.2602C44.5668 66.6457 44.978 66.2943 45.2911 66.2134L45.289 66.2112ZM57.8144 63.4659C57.5993 63.4958 56.8771 63.4084 56.9368 63.7939C57.2457 63.7748 57.8187 63.943 57.8144 63.4659ZM55.1773 65.1123C54.7747 65.9152 54.551 66.8395 54.8471 67.7489C54.9089 69.6295 55.7332 71.508 56.3872 73.2416C56.4873 73.3162 57.8251 72.5558 58.1425 72.6921C57.9188 72.181 57.5886 71.7423 57.3543 71.229C57.1413 70.7583 56.8963 69.6338 56.7238 69.3612C56.6769 69.2866 55.9079 68.8671 55.6779 68.6221C55.3029 68.2196 55.0111 67.6467 54.9557 67.093C54.8939 66.454 54.9919 65.7959 55.2859 65.2251C55.5607 64.6884 56.1124 64.5457 56.0549 64.0176C55.5948 64.2859 55.4009 64.6693 55.1773 65.1165V65.1123ZM60.2641 66.6265C60.2641 65.272 59.165 64.1752 57.8123 64.1752C56.4596 64.1752 55.3605 65.2741 55.3605 66.6265C55.3605 67.9789 56.4596 69.0779 57.8123 69.0779C59.165 69.0779 60.2641 67.9789 60.2641 66.6265ZM47.1571 78.8429C45.2464 79.041 42.7541 79.993 40.8518 79.8184C39.0603 79.6544 36.0525 78.1145 34.4464 77.2136C30.759 75.1478 27.0184 72.362 24.8712 68.6605L23.2033 65.3316C23.2629 66.8097 23.2438 68.3048 23.3077 69.785C23.706 79.1432 24.6582 88.5249 26.0641 97.7873C26.5285 98.3346 26.1728 98.2601 26.1855 98.6392C26.1898 98.7499 26.5839 100.171 26.635 100.237C26.8054 100.447 28.6608 101.059 29.0506 101.171C33.4324 102.451 38.2892 102.539 42.8095 102.905C46.1261 102.873 49.4492 103.001 52.7489 102.671C53.1983 99.4677 54.0632 96.3433 54.6085 93.1593C55.5863 87.4408 56.0719 81.6393 56.7131 75.8762L47.8026 78.6917C47.6705 79.0389 47.6854 79.418 47.6982 79.78C47.8345 83.5646 47.368 87.5239 47.0442 91.3106C46.8014 94.1581 46.6587 97.0206 46.0537 99.8233L45.9472 98.8905C46.631 92.2328 47.138 85.5411 47.155 78.8408L47.1571 78.8429ZM68.0329 66.4306C67.8369 66.2133 67.4897 67.1164 67.4215 67.1909L66.7143 68.0769C67.3363 68.2941 68.2118 66.6308 68.0308 66.4306H68.0329ZM64.6267 69.6146C64.7439 69.7424 66.3032 70.1556 66.5993 70.2237C67.7027 70.4772 69.2748 70.7562 70.3953 70.8222C70.7233 70.8414 72.9749 70.9138 72.9749 70.5496C72.0078 69.3803 69.4686 69.6891 69.2684 67.9938C69.1576 67.0504 69.7839 66.831 68.4248 66.5371C68.2885 66.5328 68.0755 68.1813 67.0743 68.3836C66.7676 68.4454 66.4885 68.3602 66.169 68.4667C66.0156 68.5178 64.9974 69.2142 64.7695 69.3697C64.6949 69.4208 64.4627 69.4336 64.6267 69.6125V69.6146ZM59.6805 68.9565C58.9882 69.3079 58.4194 69.6316 57.595 69.506C57.6824 69.8915 58.1489 71.5953 58.4386 71.689C58.6686 71.7635 60.4282 71.361 60.4431 71.2098L59.6805 68.9565ZM63.6341 70.0576C63.2869 70.1556 60.9926 70.7242 60.9011 70.835C60.8244 70.9265 60.999 71.3291 60.7839 71.542C60.5389 71.7848 59.2054 72.0511 58.8028 72.1448C59.5867 72.969 58.7879 72.8242 58.5302 73.1351C58.4492 73.2331 57.431 75.2883 57.4012 75.4119C57.1093 76.5811 57.186 78.7876 57.0433 80.108C56.3915 86.1928 55.418 92.1987 54.2655 98.2026C53.978 99.6998 53.5988 101.186 53.3091 102.684C56.2487 102.42 59.329 102.292 62.209 101.642C63.1484 101.429 65.368 100.916 65.5896 99.8596C66.0561 97.6275 65.8345 94.9185 66.169 92.6375C66.2819 85.047 65.6109 77.3904 63.6319 70.0597L63.6341 70.0576Z" fill="black"/>
<path d="M46.056 59.9513C46.7824 59.9257 47.5215 59.9641 48.2479 59.9577L49.2491 65.05C47.9476 65.4929 46.6162 65.8678 45.2849 66.2128C45.1997 66.1936 45.074 66.1468 45.0782 66.085C45.2188 64.4174 45.4255 62.1428 45.7599 60.537C45.7322 60.1919 45.8302 59.996 46.0538 59.9513H46.056Z" fill="#700B45"/>
<path d="M43.8591 65.4414L39.7969 58.5197C40.176 58.7092 41.3498 59.9125 41.6949 59.8252C41.9846 59.7528 43.6589 57.2695 43.8591 57.4207L44.9626 59.7784L43.8591 65.4393V65.4414Z" fill="#FEFFFF"/>
<path d="M44.8508 56.2146C45.0276 56.0272 45.3578 55.5352 45.5879 55.467C45.7796 55.4095 47.3517 55.4032 47.5263 55.4628C47.6328 55.4969 48.7128 57.2049 48.7533 57.32C48.8556 57.6096 48.2399 58.8662 48.2463 59.2794C47.5604 59.273 46.8553 59.3283 46.1694 59.29L45.8754 59.1601C45.4984 58.2784 45.1192 57.3966 44.7422 56.5149L44.8508 56.2125V56.2146Z" fill="#700B45"/>
<path d="M51.3305 59.1806C51.1367 60.7375 50.7234 62.2582 50.2356 63.7426L49.7946 64.6733C49.8096 64.1941 49.7286 63.7086 49.6327 63.2421C49.5156 62.6735 48.6039 59.909 48.6294 59.728C48.6507 59.5832 49.1023 58.0838 49.1897 58.0859C49.9842 58.7973 50.1482 60.5693 51.3305 59.1828V59.1806Z" fill="#FDFEFE"/>
<path d="M48.2578 55.446C49.4763 55.3033 50.7054 55.282 51.8812 54.8965C51.9622 55.0094 51.7002 57.3819 51.615 57.6503C51.5788 57.7632 50.7011 58.9622 50.6202 58.9601L48.2578 55.4481V55.446Z" fill="#FDFEFE"/>
<path d="M54.956 67.0906C55.0114 67.6443 55.3032 68.2172 55.6781 68.6197C55.9061 68.8668 56.6751 69.2842 56.7241 69.3588C56.8966 69.6314 57.1416 70.758 57.3546 71.2266C57.5889 71.7398 57.9191 72.1786 58.1428 72.6897C57.8232 72.5534 56.4876 73.3138 56.3875 73.2392C55.7335 71.5056 54.9091 69.6271 54.8474 67.7465C54.7259 67.295 54.7622 67.0756 54.9581 67.0884L54.956 67.0906Z" fill="#FCFDFD"/>
<path d="M59.6792 68.9561L60.4418 71.2093C60.4269 71.3606 58.6674 71.7631 58.4373 71.6885C58.1476 71.5948 57.6832 69.891 57.5938 69.5055C58.4181 69.6312 58.9869 69.3075 59.6792 68.9561Z" fill="#15181A"/>
<path d="M46.0578 59.951L45.2888 66.2126C44.9757 66.2935 44.5646 66.6449 44.3047 66.2594L45.3975 59.9489C45.6169 59.9425 45.8384 59.9574 46.0578 59.9489V59.951Z" fill="#460627"/>
<path d="M46.1693 59.2894C45.92 59.2767 45.6751 59.3533 45.4471 59.1872C45.1106 58.9444 44.6398 57.3492 44.0859 57.0361C44.3693 56.787 44.595 56.4824 44.8507 56.2119L46.1693 59.2873V59.2894Z" fill="#460627"/>
<path d="M44.7389 55.3365L41.516 59.0551C40.4424 58.3608 39.5179 57.4642 38.5849 56.5995L37.0469 53.7988C39.5498 54.5336 42.106 55.3003 44.7368 55.3365H44.7389Z" fill="#FEFFFF"/>
<path d="M73.4974 57.5503C73.9958 57.4736 74.6903 58.2424 74.8671 58.6641C75.34 59.7908 74.6349 60.9643 73.3589 60.8365C72.739 60.7747 73.131 60.5404 73.229 60.1464C73.4079 59.4287 73.4952 59.0858 73.1714 58.3809C73.1097 58.2446 72.8711 58.0486 72.8711 58.0252C72.8711 57.9443 73.3525 57.5694 73.4974 57.5481V57.5503Z" fill="#FD9F07"/>
<path d="M72.6463 59.8402C72.6335 59.9915 72.7336 60.2385 72.4886 60.164C72.2309 60.0873 71.8517 59.7912 71.5471 59.6762C70.3286 59.212 69.0143 58.9117 67.7043 58.9606C67.6446 59.2737 67.7873 59.1374 67.9428 59.2098C68.1218 59.2929 68.4328 59.4611 68.5819 59.5101C70.384 60.2726 72.5355 61.2246 72.6463 63.4651C72.2607 64.5406 72.2138 63.8038 71.7708 63.4055C70.7398 62.479 69.157 61.8486 67.8108 62.3683C67.8789 62.5536 68.2922 62.6537 68.469 62.6963C70.2434 63.4438 72.8486 65.4266 70.5566 67.3094C70.5523 67.3136 70.5033 67.5202 70.4458 67.3626C70.6908 66.3659 68.1516 65.4991 67.5573 65.6801C67.3698 65.7376 66.7925 66.7982 66.5476 67.09C65.1417 68.7619 62.6557 69.7245 60.5639 70.1611C60.483 69.6926 60.0995 69.0238 60.1123 68.5681C60.1208 68.2465 60.566 67.7864 60.6406 67.3392C60.7812 66.5086 60.6576 65.5949 60.1656 64.9006C59.8588 64.4661 59.0706 64.1828 59.2538 63.6483C59.2751 63.5865 60.0654 62.9305 60.2295 62.7538C61.9506 60.9051 63.5227 58.8648 65.7211 57.5337C68.0962 56.4773 71.6579 57.2355 72.6441 59.8402H72.6463Z" fill="#FF9A06"/>
<path d="M72.6475 58.9619C72.7349 59.2345 72.7349 59.49 72.6475 59.7307C72.6475 59.7669 72.6496 59.8052 72.6475 59.8414C72.2747 59.5944 72.1384 59.1748 71.8274 58.849C70.6004 57.5669 68.8302 57.1452 67.1005 57.3155C66.6511 57.3603 66.1569 57.667 65.7266 57.5349C66.7554 56.9109 67.4882 56.5573 68.7472 56.6574C69.9188 56.7512 72.2896 57.7649 72.6496 58.9619H72.6475Z" fill="#FDC00C"/>
<path d="M68.4699 62.6953C68.8342 62.7826 69.2027 62.7677 69.6287 62.9104C70.6129 63.2427 72.0358 64.3906 72.1019 65.5002C72.1594 66.4629 71.1753 66.8484 70.5596 67.3084C70.6768 66.8931 71.0666 66.6652 71.171 66.218C71.5054 64.7931 70.2571 63.9923 69.2325 63.3066C69.1665 63.2618 67.8373 62.6676 68.4721 62.6932L68.4699 62.6953Z" fill="#FDC00C"/>
<path d="M72.6464 63.4648C72.3418 63.173 72.3205 62.6938 72.1181 62.2913C71.9435 61.9441 71.6346 61.5671 71.3875 61.2626L68.582 59.5098C70.5716 60.1593 73.7541 60.3702 72.6464 63.4648Z" fill="#FCBF0C"/>
<path d="M72.6466 59.7317C72.6594 59.4762 72.6381 59.2185 72.6466 58.9629C72.7126 59.1865 72.9213 59.5017 72.6466 59.7317Z" fill="#FF9A06"/>
<path d="M71.33 41.6015L72.099 42.0402C72.736 42.0743 73.3494 42.4641 73.637 43.0285C73.7861 43.1477 73.9331 43.2563 74.0758 43.3586C74.3741 43.5204 74.668 43.7036 74.9556 43.9081C75.5776 44.2872 76.238 44.5704 76.9324 44.7877C77.0347 44.4916 77.5587 44.6088 77.5906 44.8984C77.4756 45.9207 77.3755 46.7194 77.1731 47.7331C77.0687 48.2656 77.4117 48.4764 76.3807 48.4147C75.6969 48.1868 74.7937 47.7033 74.1823 47.3157L73.7435 46.9856C73.6711 46.9174 73.5965 46.8386 73.5241 46.7662C73.2749 46.6214 73.0555 46.4382 72.8659 46.2167L71.7667 45.2285L71.4366 44.8984C70.6761 44.4235 69.8474 44.1104 68.9613 43.9741L68.9102 43.8016C69.1636 42.9113 69.4555 42.0275 69.7899 41.1649L69.8858 41.0605C70.3885 41.1734 70.8721 41.3672 71.3279 41.6058L71.33 41.6015Z" fill="#FBEE8A"/>
<path d="M64.6277 69.6145C64.4637 69.4356 64.6959 69.4228 64.7704 69.3717C64.9983 69.2141 66.0166 68.5198 66.1699 68.4686C66.4895 68.3622 66.7664 68.4473 67.0753 68.3856C68.0765 68.1833 68.2895 66.5348 68.4258 66.5391C69.7849 66.833 69.1586 67.0524 69.2693 67.9958C69.4696 69.6933 72.0088 69.3845 72.9759 70.5516C72.9759 70.9179 70.7264 70.8455 70.3962 70.8242C69.2757 70.756 67.7058 70.477 66.6002 70.2257C66.3041 70.1576 64.7449 69.7444 64.6277 69.6166V69.6145Z" fill="#B0C9D7"/>
<path d="M69.9023 40.9428C69.9748 40.7724 69.9322 40.3315 70.1707 40.3997C70.4093 40.4678 70.8141 40.8554 71.1144 40.996C72.8867 41.8266 74.5589 41.9757 76.442 42.063C76.8744 42.0822 77.3494 42.2291 77.816 42.1503C77.9459 43.0896 77.6967 43.9883 77.5965 44.8978C77.3644 44.9084 77.1535 44.8296 76.9383 44.787C76.246 44.5719 75.5793 44.2844 74.9615 43.9074C74.6313 43.7264 74.3395 43.5049 74.0818 43.2493C73.9071 43.2664 73.7409 43.1662 73.6429 43.0299C73.121 42.6998 72.6183 42.3846 72.1049 42.0417L71.336 41.603C70.9035 41.3772 70.4498 41.192 69.9748 41.0791L69.9087 40.9449L69.9023 40.9428Z" fill="#B3C6D4"/>
<path d="M71.0832 39.6538C72.6361 39.4302 76.1168 40.165 77.4482 41.0318C78.0489 41.4237 77.8167 41.6154 77.1968 41.7027C75.6737 41.9157 72.5573 41.3321 71.1961 40.5824C70.5847 40.2459 69.9755 39.8157 71.0853 39.656L71.0832 39.6538Z" fill="#B2C5D3"/>
<path d="M71.331 41.6054C70.8794 41.4222 70.2701 41.2071 69.793 41.1666C69.8228 41.0921 69.8718 41.0218 69.9037 40.9473C70.4491 41.1176 70.8559 41.2987 71.3331 41.6054H71.331Z" fill="#76734D"/>
<path d="M71.33 44.8975L71.7688 45.2276L72.868 46.2158C73.0597 46.4373 73.2791 46.6205 73.5262 46.7653C73.8074 46.6524 73.8627 46.7057 73.7456 46.9847L74.1844 47.3148L74.4571 47.2253C75.0407 47.5767 75.6478 47.9005 76.2826 48.1454L76.3806 48.4137C76.6852 48.516 76.862 48.4712 77.0388 48.5245C77.041 49.1016 76.9238 49.8385 76.6 50.2815C76.5319 50.5137 76.4573 50.7331 76.3806 50.9396C76.321 51.2847 76.2102 51.6127 76.0504 51.9279C75.65 53.1163 75.1366 54.2515 74.5125 55.3334C74.6701 55.491 74.6232 55.5847 74.4017 55.5527C74.244 55.7018 74.1503 55.8999 74.0715 56.1022C74.3186 56.3471 73.9756 56.8775 73.6327 56.7603C73.3174 57.0329 72.7231 57.0862 72.6422 57.6378C72.4973 57.7336 72.1884 57.329 72.0201 57.2182C70.9657 56.5239 69.8388 56.0895 68.5778 55.9894C67.4935 52.931 67.6533 49.1613 68.3584 45.9922C68.4798 45.2808 68.7503 44.7228 68.908 44.1244C68.9484 44.0413 68.9868 43.9774 69.0187 43.9795C69.7643 44.0392 70.7463 44.4374 71.3236 44.8932L71.33 44.8975Z" fill="#FFE212"/>
<path d="M77.0451 48.5205C77.2453 48.578 77.0409 49.398 76.994 49.6216C76.4487 52.1411 75.5135 54.633 74.2461 56.8692C74.1246 56.9906 73.558 57.1482 73.6411 56.7585C73.82 56.603 73.9542 56.2942 74.0799 56.1004C74.1566 55.9002 74.2503 55.7021 74.4101 55.5509C74.4484 55.4785 74.4825 55.4039 74.5209 55.3315C75.145 54.2496 75.6584 53.1144 76.0588 51.926L76.389 51.0464L76.6084 50.2776C76.7426 49.6898 76.9429 49.1168 77.0472 48.5205H77.0451Z" fill="#A8BECA"/>
<path d="M67.7031 49.2897L67.8373 49.2109C67.7393 51.5026 67.9268 53.741 68.3997 55.924L68.0333 55.99C67.5774 55.9687 67.537 56.0624 67.4837 55.4959C67.3069 53.6409 67.4986 51.1533 67.7031 49.2876V49.2897Z" fill="#ADC5D3"/>
<path d="M68.5829 55.9923C68.4018 55.9774 68.2144 56.0008 68.0333 55.9923C68.1079 55.8475 68.3933 55.9859 68.3464 55.7367C68.2612 55.2788 68.029 54.7783 67.9524 54.2587C67.7393 52.8147 67.8288 51.3515 67.8139 49.8926C67.8139 49.7073 67.8842 49.4049 67.7031 49.2899C67.8245 48.176 67.8884 47.0281 68.3613 45.9951C67.8182 49.1642 67.5817 52.9211 68.5808 55.9923H68.5829Z" fill="#7E8060"/>
<path d="M71.4377 44.8968H71.327C70.6027 44.4794 69.7719 44.1024 68.9092 44.128C68.9135 44.1109 68.8389 44.047 68.9092 43.7979C69.8316 44.128 70.6581 44.2387 71.4356 44.8968H71.4377Z" fill="#8B7A20"/>
<path d="M73.1986 49.0707C73.5884 50.0972 71.831 50.3187 72.2102 49.1814C72.223 49.1665 72.5191 48.9727 72.5404 48.9621C72.779 48.9046 73.0048 48.8982 73.1986 49.0728V49.0707Z" fill="#F3FBE5"/>
<path d="M73.1964 54.7839C73.1666 54.818 73.1197 54.8712 73.0857 54.8946C72.6341 55.1055 72.1569 54.8712 72.3167 54.3452C72.6873 53.6615 73.7077 54.0214 73.1964 54.7839Z" fill="#F5FAE4"/>
<path d="M72.2091 49.182C72.0216 50.2256 73.402 50.0297 73.1975 49.0713C73.7748 49.9764 72.3667 50.1681 72.1473 49.8487C72.0259 49.6719 72.0621 49.3354 72.2091 49.182Z" fill="#807241"/>
<path d="M74.5156 55.3323C75.0737 54.229 75.5488 53.0555 76.0536 51.9268C75.6894 53.0939 75.2676 54.3611 74.5156 55.3323Z" fill="#988737"/>
<path d="M72.8687 46.2138C72.3809 45.839 72.2062 45.6409 71.7695 45.2256C72.2957 45.5876 72.432 45.7367 72.8687 46.2138Z" fill="#887A1C"/>
<path d="M73.1962 54.7819C73.6542 54.0067 72.5103 53.847 72.3164 54.3432C72.6508 53.5041 73.88 53.9747 73.1962 54.7819Z" fill="#81794B"/>
<path d="M73.0899 54.8923C72.5595 55.2565 72.0824 54.9412 72.3209 54.3428C72.1654 54.741 72.7512 54.9987 73.0899 54.8923Z" fill="#877939"/>
<path d="M73.5254 46.7634C73.1931 46.7484 73.0568 46.4226 72.8672 46.2139C73.1612 46.4375 73.2293 46.4737 73.5254 46.7634Z" fill="#8A761E"/>
<path d="M73.1973 49.0706L72.5391 48.9598C72.8437 48.8171 72.98 48.7277 73.1973 49.0706Z" fill="#895721"/>
<path d="M74.0781 56.1012C74.112 55.8797 74.1862 55.6455 74.4066 55.5518C74.2646 55.8265 74.2307 55.8691 74.0781 56.1012Z" fill="#988233"/>
<path d="M76.3832 51.05C76.4044 51.3929 76.1819 51.6464 76.0547 51.9296C76.1607 51.5867 76.2688 51.2779 76.3832 50.9414V51.0522V51.05Z" fill="#96842E"/>
<path d="M71.7708 45.2286C71.6494 45.1455 71.3597 44.9155 71.332 44.8984H71.4428C71.594 45.0262 71.6579 45.1199 71.773 45.2286H71.7708Z" fill="#827615"/>
<path d="M74.1888 47.3145C73.9438 47.159 73.9779 47.2016 73.75 46.9844C73.9673 46.9929 74.1057 47.1228 74.1888 47.3145Z" fill="#867816"/>
<path d="M76.3828 51.0511V50.9403C76.4488 50.7487 76.3807 50.4462 76.6022 50.2822C76.5447 50.5314 76.5766 50.8488 76.3828 51.0511Z" fill="#918338"/>
<path d="M76.9338 44.7907C75.9753 44.6033 75.726 44.4287 74.957 43.9111C75.5961 44.2285 76.299 44.4649 76.9338 44.7907Z" fill="#757352"/>
<path d="M74.9583 43.9092C74.5174 43.6899 74.4641 43.6409 74.0786 43.3598C74.004 43.3278 74.0061 43.2916 74.0786 43.249C74.4045 43.4492 74.6793 43.7218 74.9583 43.9071V43.9092Z" fill="#777453"/>
<path d="M72.101 42.0432C71.7368 42.0539 71.5387 41.7365 71.332 41.6045C71.7602 41.7791 71.7645 41.8196 72.101 42.0432Z" fill="#76744E"/>
<path d="M74.0755 43.2516V43.3623C73.969 43.2857 73.6878 43.3006 73.6367 43.0322C73.7368 43.0961 73.9222 43.1579 74.0755 43.2516Z" fill="#736D50"/>
<path d="M39.9049 41.3837C42.427 42.3676 46.1889 42.5338 48.2552 40.5041C48.6322 40.1889 49.7569 40.0824 49.5737 40.7235C47.4308 42.0439 50.4578 45.1087 51.9915 45.6667L51.8807 45.9201C48.5257 47.871 45.7969 46.8636 42.8232 44.6997L42.6507 44.6763C42.5292 44.5656 41.7602 43.8074 41.6623 43.9075C41.8455 44.5762 42.1991 44.9979 42.7103 45.4409C43.6497 46.2566 43.4921 45.9265 44.1716 47.0553C45.5051 49.2724 46.453 50.6951 49.2031 51.1423C51.7976 51.5661 52.9181 50.8292 54.0855 48.5781C54.1558 48.4418 54.1408 48.1926 54.2154 48.1053C54.2644 48.0456 55.3657 47.6708 55.6511 47.5089C56.0324 47.2917 56.5288 46.9211 56.8078 46.5782C56.9165 46.4462 57.2211 46.0671 57.1018 45.8839C56.3626 46.7145 53.4997 48.3012 52.6433 47.1554C52.4665 46.9211 52.8265 45.8754 52.9799 45.7178C53.1056 45.59 53.6211 45.5155 53.866 45.3941C54.8864 44.885 56.0388 43.982 56.499 42.9193C58.0071 43.0556 59.5728 43.5305 61.0639 43.0343C61.4026 42.9214 61.622 42.6977 61.8819 42.5891C62.0587 42.4294 62.5252 42.012 62.7489 42.1951C62.9214 42.3357 62.8107 43.2792 62.7617 43.5773C62.5508 50.6461 55.0121 54.1325 48.8623 54.6714C45.0663 55.0036 38.7354 54.19 35.4038 52.2562C34.3685 51.7536 33.3695 51.1572 32.5664 50.3117C32.0104 49.726 31.0838 48.61 32.6154 48.7612L31.9146 48.4354C31.0966 48.2245 30.8878 47.954 31.2883 47.6197C31.8698 47.4216 32.4727 47.2619 33.0798 47.1511L31.4246 46.7422C30.9645 46.4014 31.3756 46.131 31.7633 45.886C33.1202 45.2173 33.4653 44.9873 32.7986 45.1981C32.3534 45.3621 30.5512 45.7987 31.2223 44.8744L33.836 43.6114C33.3205 43.2898 31.9827 41.9992 32.9179 41.6286L34.6731 42.0567C34.3494 41.8991 33.3631 41.0621 33.3886 40.7362C33.4185 40.3635 33.4888 40.2506 33.8765 40.3784C35.653 41.1664 37.4594 41.4731 39.2914 41.3006L39.9091 41.3773L39.9049 41.3837Z" fill="#E8F1C8"/>
<path d="M35.2882 9.41797C36.5152 10.3615 37.7294 11.667 38.7178 12.8916C40.6371 15.2663 41.9663 18.084 42.9888 20.9166C43.2529 21.4704 43.5384 22.0071 43.843 22.5267C43.8238 22.2882 43.9026 22.1285 44.0773 22.0497L44.2967 22.1604C44.3308 21.8686 44.1902 21.5151 44.4075 21.2808C44.5395 21.317 44.6567 21.366 44.6205 21.4853C50.1675 21.7132 54.8539 23.7663 58.128 28.3538C58.6264 29.0524 60.239 31.6571 60.0941 32.3642C60.0771 32.443 60.0472 32.5196 60.011 32.5963C58.2409 32.3514 56.2598 32.1171 54.5173 32.3769C53.8122 32.4813 53.1518 32.4962 52.9772 33.3652C52.1677 32.7901 51.256 32.903 50.3421 33.1458C50.5403 31.1736 48.1907 31.344 46.8252 31.0586C45.0593 31.0416 43.2018 30.6987 41.5509 30.0704C39.8148 29.7765 38.0872 29.4059 36.3384 29.1887C33.9547 29.7232 31.5305 30.0534 29.1362 30.5113C28.7102 30.5901 28.5291 30.5368 28.5952 30.3473C28.5334 28.6818 28.5313 27.0163 28.5866 25.3466C29.1937 21.2148 30.7829 16.2844 32.8939 12.6808C33.1836 12.1845 34.9026 9.49677 35.2903 9.41797H35.2882Z" fill="#FFA106"/>
<path d="M35.4013 52.2595C29.0448 49.8891 23.7108 43.9598 24.1901 36.8208C24.2668 35.6856 24.4394 34.7762 25.3745 34.0499C28.949 33.4728 32.534 32.7252 36.1703 32.7061V36.7164C36.1703 38.8398 38.064 40.665 39.9066 41.3849C37.6209 42.0579 35.6612 41.1911 33.5352 40.5074C33.8548 41.5595 35.0711 41.9386 35.8422 42.5925L32.7662 41.8258C32.8451 42.6691 33.6354 43.2357 34.3042 43.6382L31.2282 45.1226C31.2069 45.3143 31.6053 45.2419 31.7203 45.2291C32.4275 45.1546 33.2051 44.6498 33.8633 45.1759C32.9473 45.4783 32.0697 45.8446 31.3369 46.4942C32.0952 46.7413 33.1625 46.7498 33.7546 47.3163C33.1348 47.3206 32.4595 47.5016 31.863 47.6784C31.6905 47.7295 31.2794 47.7849 31.2282 47.9766C32.1442 48.2108 32.9771 48.739 33.8633 49.0776C33.8888 49.2715 33.614 49.1863 33.4926 49.1735C32.9963 49.1181 32.5149 48.8838 31.9951 48.9669C31.9738 49.1181 32.0122 49.2416 32.0782 49.3779C32.4467 50.1404 34.6195 51.808 35.4013 52.2617V52.2595Z" fill="#FFA106"/>
<path d="M48.2539 40.5046C48.5628 40.2001 49.0655 39.444 49.2636 39.0415C49.5661 38.4302 50.007 36.3175 50.1796 36.113C50.4246 35.8191 51.3235 35.7297 51.692 35.8064C51.7879 35.8277 52.5952 36.2046 52.625 36.2451C52.772 36.4496 52.8189 38.2215 52.8849 38.6773C52.9573 39.1842 53.1405 39.6676 53.2002 40.1745H51.3874C51.053 40.1745 49.8856 40.5323 49.5746 40.724C49.3488 40.3066 48.6629 40.5728 48.256 40.5046H48.2539Z" fill="#FFA106"/>
<path d="M44.0803 22.0479C44.108 22.3695 44.0611 22.7124 44.0803 23.0361C43.7203 23.0574 43.6777 22.5803 43.5137 22.3396C42.6744 21.1172 42.4039 19.8159 41.7925 18.4571C41.0001 16.6979 39.8753 14.7278 38.6931 13.2072C37.6493 11.8654 36.3414 10.7473 35.2891 9.41403C35.8749 9.29477 37.3553 10.579 37.8176 11.005C40.8552 13.7992 42.5657 17.1941 43.7736 21.0895C43.9035 21.5069 44.0292 21.4515 44.0803 22.0479Z" fill="#FEC310"/>
<path d="M60.67 31.8265C60.7957 32.1374 60.9277 32.4867 60.998 32.8147C60.9575 32.8573 60.1481 32.6145 60.0096 32.5953C59.1107 29.5327 56.8356 26.6405 54.2858 24.7492C51.2588 22.5044 48.2766 21.923 44.568 21.7207C44.2548 21.7036 44.4529 21.4459 44.4061 21.2798C44.5168 21.1627 47.2008 21.595 47.612 21.644C53.4487 22.6088 58.4461 26.3082 60.6678 31.8265H60.67Z" fill="#FEC210"/>
<path d="M59.6809 15.7866C60.8973 19.7054 60.8994 24.0906 60.1155 28.1862C60.0963 28.2863 60.0452 28.38 59.9898 28.4737C59.9344 28.5674 59.8641 28.6611 59.7896 28.7484C59.6703 28.5291 59.3785 28.3672 59.3657 28.0413C59.3337 27.2895 59.7363 25.9307 59.7896 25.0682C59.8982 23.3132 59.8364 20.7767 59.4104 19.0792C58.9652 17.3073 58.0854 18.7151 57.44 19.5329C56.4388 20.8022 55.5803 22.3144 54.9541 23.8052L51.4414 21.9928C53.0476 20.1761 54.8902 18.4041 56.8329 16.9495C57.2951 16.6023 58.8693 15.3543 59.355 15.5012C59.5467 15.5587 59.5766 15.6737 59.6809 15.7866Z" fill="#FFA106"/>
<path d="M59.0187 27.5412C57.8385 26.3144 56.701 25.0472 55.293 24.0696C56.1472 22.1273 57.4274 20.4022 58.746 18.7559C58.9015 18.7559 59.0634 19.7398 59.0996 19.94C59.5491 22.5256 59.2125 24.9599 59.0208 27.5433L59.0187 27.5412Z" fill="#FF5401"/>
<path d="M59.6817 15.7853C61.4498 17.7213 61.2282 22.8093 61.0003 25.2863C60.9002 26.3746 60.7255 28.4532 60.4251 29.4351C60.3975 29.5245 60.2952 29.6693 60.2334 29.6267C60.1205 29.3243 59.9459 29.0325 59.7925 28.7471C60.3889 25.5333 60.6701 22.4111 60.2164 19.1504C60.0822 18.1941 59.8159 17.2634 59.6434 16.3156C59.6135 16.1559 59.4751 15.8876 59.6817 15.7832V15.7853Z" fill="#FEC310"/>
<path d="M29.1362 30.5085C28.0434 30.7172 26.9676 31.1091 25.8408 31.1666C25.6597 31.0026 27.4767 28.2594 27.8751 28.0912C28.0988 27.9974 28.0306 28.2424 28.0391 28.3638C28.0796 28.9793 28.0753 29.5288 28.2436 30.1443C28.2947 30.3338 28.1648 30.4488 28.4779 30.3977C28.561 29.4521 28.3991 28.4319 28.4098 27.5055C28.4183 26.7025 28.4737 26.1318 28.5887 25.3438C28.6249 25.8506 28.6973 26.4321 28.708 26.9368C28.7314 27.974 28.5078 29.2114 28.6995 30.2316C28.7527 30.5127 28.8912 30.5234 29.1383 30.5063L29.1362 30.5085Z" fill="#FD9F06"/>
<path d="M51.991 45.6673C52.0763 45.6993 52.2914 45.5992 52.3191 45.7206C52.0677 45.9996 51.9996 46.7493 51.6587 46.9282C51.418 47.0517 50.1889 47.1837 49.8481 47.205C46.9958 47.3712 44.725 46.5576 42.6523 44.6791C42.7248 44.447 42.9761 44.6834 43.0826 44.7451C45.2597 45.9911 47.4069 47.3648 50.0632 46.5427C50.7555 46.3276 51.2923 45.81 51.991 45.6695V45.6673Z" fill="#F8FCE4"/>
<path d="M62.8673 42.2622C62.8993 42.6435 62.9355 43.2781 62.7565 43.5806C62.7693 43.1802 62.748 42.7734 62.7565 42.373C62.7118 42.3261 62.011 42.537 61.8789 42.5923L62.7033 41.3848C62.6862 41.6531 62.8524 42.0706 62.8673 42.2622Z" fill="#ECB813"/>
<path d="M42.9529 25.8137C44.5462 25.6028 48.0695 27.1981 47.7926 29.1063C47.5072 31.07 43.8752 29.8986 42.8144 29.0808C41.5192 28.0798 40.6949 26.1119 42.9529 25.8137Z" fill="#070402"/>
<path d="M38.2565 22.4888V23.0382C38.0349 23.2555 36.5672 22.2247 36.1689 22.2694C36.0602 22.4909 36.3393 23.543 36.1731 23.6452C35.9005 23.8156 35.4617 23.5728 35.3914 23.6324C35.2891 23.7219 35.3339 23.9306 35.2146 24.0328C35.0314 24.1926 33.8853 24.5866 33.4976 24.8145C33.1099 25.0424 31.8318 26.2159 31.7189 26.2201C31.5933 26.2222 31.4654 25.8687 31.425 25.7473C30.2683 22.2183 32.8245 15.682 34.9802 12.7855C35.4638 12.1338 35.8536 11.4693 36.5459 12.3872C38.1457 14.5085 39.7881 20.1141 39.9095 22.7678C39.9627 23.9519 38.7421 22.5314 38.2586 22.4888H38.2565Z" fill="#040201"/>
<path d="M39.5721 22.8184C38.9693 22.6075 38.0256 21.3424 37.9809 22.7076C34.8261 20.7589 36.1745 23.1336 35.9465 23.3678C34.8325 23.0037 35.0923 23.5787 34.7771 23.8172C34.5747 23.9684 33.9399 24.0345 33.6949 24.2474L31.7735 25.5658C31.0983 22.9227 31.9205 19.9133 32.9302 17.4407C33.6545 15.6687 34.6514 13.8414 35.8933 12.3867C37.9148 15.4749 38.9416 19.2084 39.5721 22.8205V22.8184Z" fill="#FF5401"/>
<path d="M43.2876 26.2547C44.2057 26.2312 45.5008 26.7637 46.2208 27.3259C48.9283 29.4387 46.4147 30.3736 44.0587 29.2683C42.7508 28.6549 40.6525 26.3207 43.2876 26.2547Z" fill="#E8F0C6"/>
<path d="M55.3718 27.6802C58.7098 27.2266 58.5905 30.5341 55.8191 31.3115C52.0444 32.3721 51.9039 28.1509 55.3718 27.6802Z" fill="#060402"/>
<path d="M55.2581 28.1177C58.8347 27.5086 57.6333 31.1441 54.8086 31.0504C52.3036 30.9652 53.2728 28.4563 55.2581 28.1177Z" fill="#E8F1C8"/>
<path d="M63.9684 37.2134C63.8023 37.7373 63.1504 39.6626 63.1185 40.0311C63.1078 40.1631 63.3741 41.1513 63.4188 41.4963C62.7521 41.228 62.8458 41.7391 62.8692 42.2652C62.5902 42.0032 62.4262 41.999 62.3793 42.2545L61.8808 42.5953C61.8276 43.083 61.0543 43.313 60.6198 43.3833C59.4716 43.5707 57.8591 43.4217 56.7173 43.1682L56.4958 42.9254C55.9206 42.278 55.3433 41.4729 55.1154 40.621C55.06 40.4144 55.1005 40.2185 55.0664 40.0694L55.3305 40.0524C55.8354 40.6082 56.532 40.8745 57.2307 41.0981C57.5651 41.3302 57.9933 41.8435 57.3734 41.8265L57.2264 42.0394C57.0539 41.9649 56.8046 42.1417 56.9324 42.2056C57.6673 42.5676 61.3483 42.7657 61.6998 41.5283C62.3111 40.1567 62.799 38.7362 63.1675 37.2687L63.421 37.2112C63.3592 36.7299 63.47 36.4743 63.7511 36.4424C63.962 36.5404 64.0345 36.7959 63.9705 37.2112L63.9684 37.2134Z" fill="#1D1603"/>
<path d="M61.2211 31.7181C61.2381 31.7586 61.3425 31.8289 61.3872 31.9332C61.466 32.1185 61.6428 32.8746 61.6812 32.9065C61.8282 33.0365 62.9572 33.0194 63.2 33.2558C63.0978 33.4539 62.9891 33.6371 62.8698 33.8053C62.4289 34.0396 61.2679 33.9097 61.0017 33.4752C60.7162 33.5263 60.4606 33.488 60.2327 33.3644C60.1688 33.7095 59.5446 33.5774 59.4637 33.2537C59.2954 33.5348 58.8587 33.4709 58.8054 33.1429L58.5456 33.341L56.3877 33.1493L56.1683 32.9236C56.6902 32.996 56.9479 32.9257 57.0459 32.3741H54.5195C54.5707 32.3102 54.626 32.2506 54.6899 32.2016C55.2246 31.7991 58.7991 32.176 59.6597 32.323L60.0133 32.5935C60.0665 32.3933 60.2923 32.3656 60.6928 32.5147C60.5266 32.2314 60.5202 31.9993 60.6715 31.8246C60.9015 31.8395 61.1401 32.0099 61.2211 31.7139V31.7181Z" fill="#211A04"/>
<path d="M63.1984 33.2578C63.2346 33.2578 63.2708 33.2578 63.3092 33.2578L63.6394 33.3685C64.1591 33.4282 65.0602 33.6795 65.4798 33.9883C66.2403 34.5484 65.8824 36.363 65.0751 36.6143C64.4126 36.8209 64.2315 36.3886 63.9695 37.2128C63.716 37.0403 63.7373 36.7123 63.7501 36.4439C63.5797 36.1585 63.7586 36.0137 64.0398 35.9243C65.0367 36.0286 65.4202 34.7146 64.3721 34.4632L62.9726 34.0586L62.8725 33.8073L62.7617 33.2578C62.9087 33.2557 63.0557 33.2578 63.2005 33.2578H63.1984Z" fill="#040302"/>
<path d="M41.3316 30.5091C41.8599 30.4345 42.0815 30.5091 41.9899 30.7284L41.911 30.9542C41.6384 30.9606 41.4914 31.0756 41.3295 31.2779C41.1506 31.5186 40.9695 31.559 40.9439 31.2417L40.5605 31.1693C40.3986 31.3801 40.0855 31.4227 39.6211 31.2971C38.6497 31.2268 38.2194 31.4824 38.0533 32.4663C37.721 34.447 37.5357 38.1379 39.4379 39.3711C39.8597 39.5351 40.16 39.7672 40.339 40.0675L40.6116 39.9355C42.1603 40.4445 43.858 40.7618 45.4621 40.3614C45.5217 40.4998 45.6048 40.5616 45.7241 40.5062L45.8263 40.2251C47.7669 39.1687 48.6083 36.383 48.4933 34.2894C48.4294 33.1457 47.6497 32.8348 46.6741 32.5196L46.606 32.2661C46.3013 31.9807 46.2289 31.723 46.3865 31.4973C46.4228 31.4014 46.459 31.4014 46.4973 31.4973C47.2578 31.6549 48.7851 31.8487 49.4199 32.1447C49.7586 32.3023 49.8886 32.954 49.9099 33.3055C49.9993 34.9262 49.2964 38.3062 48.3016 39.616C45.5963 43.1791 37.6358 41.6925 36.8412 37.1412C36.5792 35.644 37.0436 34.1318 36.8029 32.7858C36.6729 32.0574 36.2746 32.2874 36.0041 31.936C35.6334 31.4526 35.6462 29.9873 36.3364 29.851C36.5771 29.8041 36.9413 29.8446 37.1991 29.8616C38.3984 29.9489 40.1217 30.2769 41.3338 30.5069L41.3316 30.5091Z" fill="#4F4139"/>
<path d="M35.509 29.9619C35.1639 30.6882 35.2832 31.391 35.4003 32.1577C31.9899 32.1598 28.62 32.9606 25.2671 33.5059C24.7068 33.5506 24.7132 34.4004 24.2425 34.4685C23.3648 34.5942 23.4181 33.2141 23.7696 32.6667C24.1211 32.1194 25.5163 31.8915 26.149 31.7509C29.2463 31.063 32.4586 30.833 35.5111 29.9619H35.509Z" fill="#4C3F3A"/>
<path d="M55.8356 34.2451L55.5032 35.7935C56.0315 36.7945 56.5215 37.8146 56.9709 38.8582L56.8218 39.0797L56.9752 39.1053C57.037 39.9721 57.2841 40.3065 57.9657 40.8836C58.0339 41.1882 58.1106 41.5311 58.0296 41.8271C58.0041 42.1785 57.4311 42.1615 57.3714 41.8271C57.8763 41.9272 57.1328 41.2947 57.1009 41.2755C56.8517 41.1328 56.5811 41.152 56.3553 41.0327C55.8888 40.7857 55.3669 40.5024 55.0644 40.0722C54.7556 38.6687 54.4126 36.4835 54.632 35.08C54.7279 34.473 55.3094 34.309 55.8334 34.2494L55.8356 34.2451Z" fill="#35311E"/>
<path d="M58.1441 34.3548L58.1334 34.6189C56.9448 35.4601 56.8255 36.951 58.2122 37.6985C58.4657 37.8625 58.2974 39.9199 58.2229 40.0114C57.7116 40.6248 57.4624 39.611 57.4347 39.151C57.1493 39.2809 56.9469 39.2575 56.8276 39.0807C56.8021 38.9678 56.0437 37.3769 55.8925 36.9957C55.7625 36.6698 55.3344 36.0756 55.2918 35.8328C55.2172 35.4047 55.4366 34.4825 55.8392 34.2461C55.8754 34.2419 55.9116 34.2483 55.95 34.2461L56.5741 34.1524C56.9661 33.9011 57.8437 33.948 58.1483 34.3569L58.1441 34.3548Z" fill="#5D532C"/>
<path d="M56.166 32.9283C56.9393 32.9368 57.9852 33.0795 58.8032 33.1476C59.0631 33.3904 58.931 33.7589 58.5838 33.8057L58.3857 33.9612C57.6337 33.7653 56.8669 33.6247 56.1682 33.5864C55.38 33.6865 54.4257 33.793 54.1339 34.6832C53.7717 35.7864 54.1935 38.553 54.4406 39.7627C54.4832 39.9693 54.5961 40.1354 54.6302 40.342C54.0934 40.3931 53.9081 40.2653 53.7568 39.7883C53.3223 38.4252 53.1731 35.3988 53.4458 33.9974C53.5928 33.2435 53.8378 33.1413 54.5194 33.0369C54.7601 32.9517 55.0157 32.9155 55.2884 32.9261C55.5781 32.9155 55.8763 32.924 56.1682 32.9261L56.166 32.9283Z" fill="#4E4139"/>
<path d="M52.65 35.3441C51.8256 34.9948 51.0481 34.8542 50.2344 35.3441C50.3217 35.0374 50.2812 33.9682 50.3941 33.8021C50.5986 33.4975 51.636 33.4358 51.996 33.5295C53.0057 33.7893 52.846 34.4836 52.65 35.3441Z" fill="#4B3F3A"/>
<path d="M46.8275 31.0585H46.3887L46.4974 31.4973C46.4633 31.4909 46.4228 31.5037 46.3866 31.4973L46.1651 31.674C44.8486 31.3141 43.513 31.0692 42.1603 30.9435L41.9942 30.7284C41.8451 30.6432 41.4957 30.5389 41.3359 30.509C41.615 30.5389 41.9196 30.5027 41.8855 30.1811L41.5554 30.0703C43.3319 30.3706 45.0659 30.6901 46.8297 31.0585H46.8275Z" fill="#251C03"/>
<path d="M58.5825 33.8081C59.1704 33.9828 58.4589 34.9625 58.1437 34.3576C57.4492 34.232 56.6525 34.1958 55.9453 34.2469C56.4289 33.9977 56.644 34.3661 56.7164 33.6441L56.1647 33.5866C56.3351 33.5653 56.4374 33.4695 56.7633 33.4759C57.2724 33.4844 58.1224 33.5994 58.5803 33.806L58.5825 33.8081Z" fill="#3B2E04"/>
<path d="M55.2885 32.9277C55.1948 32.9319 54.6857 33.0129 54.5195 33.0384C54.675 32.8297 55.0478 32.9554 55.2885 32.9277Z" fill="#211A04"/>
<path d="M63.4172 37.2117C62.9912 38.3788 62.3585 41.4734 61.4362 42.206C61.0741 42.4935 60.0835 42.6959 59.6234 42.7065C59.2954 42.7129 56.8222 42.4765 56.7221 42.37C56.6731 42.3189 56.737 41.9547 56.7157 41.8248C56.933 41.8354 57.1588 41.8077 57.3761 41.8248C57.7403 41.8546 57.6871 41.8482 58.0343 41.8248C58.0769 41.7119 58.2004 41.6501 58.4049 41.6374C58.5349 40.6726 59.7512 40.8941 59.715 41.8397C59.9429 41.7204 60.1155 41.7162 60.2305 41.8248C60.4968 41.7566 60.7545 41.6523 61.0059 41.5117C61.9645 40.0698 62.4949 38.4108 62.5993 36.5323L62.8698 36.2213C62.9955 34.8924 63.4279 35.4482 63.4982 36.4876L63.4194 37.2096L63.4172 37.2117Z" fill="#675331"/>
<path d="M62.8702 33.8067C63.358 33.9323 65.0046 34.2688 65.1558 34.7629C65.2879 35.1953 65.1005 35.9109 64.6318 36.0642C64.2228 36.1984 64.0311 35.9663 63.7478 36.4433C63.637 36.6308 63.4986 36.995 63.4176 37.2122C63.3175 37.1036 63.1833 35.3146 62.9788 35.5637C63.0789 35.8214 62.8936 36.0642 62.868 36.2218L62.6784 36.0004C62.8531 34.944 62.1757 34.3945 61.1724 34.3647L60.9999 34.1347C60.7229 33.9025 60.7251 33.7087 60.9999 33.4766C61.5686 33.6214 62.2631 33.6512 62.868 33.8067H62.8702Z" fill="#534438"/>
<path d="M41.3338 31.2788C41.5063 30.8614 43.0635 31.1553 42.6523 31.7176C42.7461 31.7453 42.7439 31.7815 42.6523 31.8283C42.6353 32.0647 42.5714 32.2074 42.4585 32.2585L40.618 32.0306C40.4242 32.8144 40.0407 33.5896 39.4656 34.3564L39.4805 34.8015C38.835 35.8003 38.6902 37.0441 39.4443 37.9748C40.0897 37.8172 40.339 38.9567 40.0152 39.2974C39.832 39.6574 39.3463 39.2399 39.1226 39.027C38.0511 38.0111 38.0043 36.3903 38 34.9974C37.9979 34.4139 38.1449 31.9689 38.5922 31.6366C38.6668 31.5813 38.7818 31.6452 38.8627 31.7197C38.9693 31.4833 39.2803 31.4087 39.7936 31.5003C40.3134 31.413 40.6819 31.4875 40.8971 31.7197C40.7266 31.6004 40.6265 31.3704 40.5669 31.1702C40.8332 31.1936 41.076 31.2448 41.3359 31.281L41.3338 31.2788Z" fill="#1F1F19"/>
<path d="M40.5644 31.1698L41.0054 31.2806C41.0224 31.2955 40.918 31.7193 40.8946 31.7193H38.8624C38.6089 31.7193 38.4342 32.6905 38.398 32.9035C38.1531 34.356 38.0274 37.2674 38.9178 38.475C39.1457 38.7838 39.6229 39.2417 40.017 39.2992C40.1682 39.1565 40.2321 39.2247 40.1277 39.4099C40.6305 39.7358 40.7029 39.9552 40.3471 40.0681C39.3417 39.6677 38.5194 39.1331 38.0955 38.0895C37.6035 36.8777 37.5055 32.9482 38.0338 31.7662C38.4641 30.8014 39.6974 31.0953 40.5687 31.1698H40.5644Z" fill="#070502"/>
<path d="M46.3888 32.2664C46.4058 31.9767 46.5145 31.9916 46.6082 32.2664C47.5135 32.5518 48.5403 32.901 48.6851 33.9787C48.9685 36.068 47.8948 39.7014 45.7285 40.5043C45.1789 40.6875 45.1384 40.1678 45.6177 40.0656L45.6667 39.8122C47.5987 38.5577 47.9076 35.8082 48.0333 33.6933C47.7947 33.6742 47.5412 33.5677 47.2707 33.3739C46.7659 33.2801 46.3973 33.0927 46.1651 32.8137C45.7668 32.6007 45.8584 32.0832 46.3845 32.2642L46.3888 32.2664Z" fill="#100C03"/>
<path d="M41.9923 30.7283C43.0872 30.6729 45.228 31.2586 46.3868 31.4971C46.4401 31.7186 46.8576 32.1233 46.6062 32.266C46.5466 32.2468 46.4486 32.283 46.3868 32.266C46.0226 32.4002 45.326 32.3363 45.0682 31.9359L44.8318 31.8997C44.5762 31.4865 44.393 31.7314 44.2801 32.6344C43.9392 32.9922 43.3449 32.7835 43.3044 32.283C43.3662 31.5482 43.2938 31.5397 42.6505 31.7144C42.691 31.3118 41.7047 31.3246 41.3319 31.2756C41.1295 30.8667 41.628 30.7453 41.9901 30.7261L41.9923 30.7283Z" fill="#675430"/>
<path d="M41.8824 39.9567C42.023 39.6522 42.366 39.9205 42.432 40.1761C42.6365 39.8801 43.348 39.7715 43.4204 40.1761C43.4971 39.9993 43.6249 40.0015 43.8059 40.1804C43.938 40.0654 44.0318 40.0419 44.1894 40.1761C44.298 39.8354 44.9754 39.7715 45.1778 40.0654C45.4185 39.863 45.5655 39.863 45.6166 40.0654C45.5527 40.338 45.3567 40.5659 45.7274 40.5041C44.2831 41.0408 41.7759 40.634 40.3444 40.0654C40.3849 39.8055 40.2912 39.5989 40.125 39.4073L40.3316 39.2773C40.8067 39.4797 41.3009 39.6266 41.8142 39.7161L41.8824 39.9589V39.9567Z" fill="#332704"/>
<path d="M62.8704 36.2198C62.749 36.9631 62.6872 37.7021 62.5083 38.439C62.2761 39.406 61.7521 41.8041 60.6018 41.934C60.3781 41.9596 60.2524 41.8211 60.2333 41.8233C60.0735 40.9053 60.9937 40.8606 61.4432 40.2323C61.5838 40.0342 61.7073 39.7489 61.7712 39.5167C61.8628 38.3837 61.9353 37.2485 61.9906 36.1112C61.9012 35.8876 61.7372 35.6597 61.5966 35.4616C61.1258 34.795 61.0172 35.1784 61.0022 34.1348C62.3847 34.1859 63.1154 34.7631 62.8704 36.2219V36.2198Z" fill="#392D06"/>
<path d="M59.4632 33.2551L59.6911 33.4468C59.5185 34.3115 59.9957 34.3647 59.9872 33.4617L60.2322 33.3659C60.2577 33.3659 60.4516 33.2082 60.7221 33.253C60.9458 33.2892 60.982 33.4723 61.0011 33.4766C61.0033 33.696 60.9969 33.9153 61.0011 34.1347C61.1929 34.2135 61.2908 34.435 61.2951 34.7992C61.6317 35.1101 61.9107 35.485 62.1301 35.8896L61.9895 36.1111C62.2047 37.0397 61.5997 37.2889 60.999 36.6031C60.9585 36.6244 60.8456 37.2995 60.9138 37.4295C61.8127 37.9513 61.981 38.5433 61.7701 39.5166C62.1451 39.7956 61.6019 40.3984 61.342 40.6603L60.6007 41.2183C60.5027 41.4888 60.3791 41.6911 60.2322 41.8253C60.1406 41.8274 59.9403 42.1405 59.64 42.0383C59.2949 41.9233 59.7592 41.1395 58.8561 41.2673C58.5344 41.312 58.7602 41.6635 58.5088 41.836C58.2873 41.9893 58.119 41.8189 58.0359 41.8253C57.7079 41.6273 57.9017 41.1843 57.7611 40.9479C57.6312 40.7306 57.1263 40.5858 56.9325 40.0193C56.8004 39.6359 56.892 39.3569 56.8281 39.08L57.5843 38.8735C57.6759 38.931 57.7441 40.3153 58.0359 39.9575C57.8911 39.3782 58.3043 38.4539 58.1275 37.9427C58.07 37.7745 57.284 37.3421 57.1306 36.963C56.7195 35.9493 57.2563 34.8567 58.1467 34.3541C58.2064 34.32 58.4279 34.4009 58.5365 34.2497C58.6345 34.1113 58.5536 33.9111 58.5855 33.8046C58.6516 33.5895 58.7453 33.3659 58.8049 33.1465C59.0669 33.1678 59.2714 33.2359 59.4632 33.2572V33.2551Z" fill="#FFFE0E"/>
<path d="M60.2334 33.3655C60.1631 33.6295 60.1673 33.9362 60.1205 34.1897C60.0928 34.3366 60.2035 34.3792 59.9671 34.3494C59.1704 34.2493 59.5261 33.9426 59.4665 33.2568C59.7051 33.2824 60.0693 33.3591 60.2355 33.3676L60.2334 33.3655Z" fill="#715D1D"/>
<path d="M61.7708 39.5163C61.8007 39.1052 61.7623 38.7112 61.5727 38.3406C61.3619 37.9275 60.84 37.7209 60.7271 37.5377C60.5268 37.2097 60.9103 36.4238 60.7824 36C61.1829 36.4771 61.8262 37.4291 61.9903 36.1108C62.0968 36.3748 62.2033 36.7539 62.1969 37.0329C62.1862 37.5313 61.9029 39.0435 61.7687 39.5163H61.7708Z" fill="#655416"/>
<path d="M59.6759 38.205C59.7462 38.2774 59.5886 40.1197 59.5588 40.2155C59.4693 40.4881 59.0411 40.3838 58.8047 40.3944L59.0262 38.0879C59.1476 38.1454 59.6546 38.1795 59.6781 38.2029L59.6759 38.205Z" fill="#90751A"/>
<path d="M59.9965 35.2469C60.0519 35.3342 59.8602 37.2425 59.7793 37.3085C59.6685 37.4001 59.0827 37.3362 59.1274 37.0466L59.3511 35.1234C59.3937 35.0808 59.9561 35.183 59.9965 35.2469Z" fill="#9B8021"/>
<path d="M58.4742 35.2324C58.4529 35.6903 58.4017 36.1461 58.3634 36.6061C58.3527 36.7254 58.4294 36.9746 58.2015 36.8787C57.5901 36.6253 57.8159 35.3283 58.4742 35.2324Z" fill="#856E15"/>
<path d="M60.4537 39.9553C60.4303 39.4739 60.4473 38.982 60.6177 38.5283C61.0885 38.8904 61.0033 39.721 60.4537 39.9553Z" fill="#846D15"/>
<path d="M40.5655 35.7838C41.0448 35.4814 41.2684 37.066 40.8957 37.2129C40.9319 37.6048 40.7338 37.7432 40.9532 38.3097C41.245 39.0637 42.0609 39.0999 41.8841 39.9582C41.4026 39.841 40.525 39.6856 40.1267 39.4087C40.0926 39.3853 40.0287 39.3278 40.0159 39.298C39.9392 39.1169 39.8306 38.2437 39.7901 38.2054C39.7347 38.1543 39.4109 38.2821 39.1894 38.0904C38.9828 37.9115 38.7101 36.7955 38.6973 36.4909C38.659 35.6624 39.1787 35.0491 39.4663 34.3526L39.6282 34.3398C39.8561 34.834 40.0287 35.4005 40.148 36.0415C40.2524 35.835 40.3908 35.7476 40.5655 35.7817V35.7838Z" fill="#3F391E"/>
<path d="M39.4648 34.3545C39.8099 33.5239 40.138 32.6784 40.4682 31.8435C40.679 31.7072 41.9422 32.0245 42.2873 32.0416C42.528 32.0543 42.5366 32.0309 42.6516 31.8286C42.6175 32.0203 42.7198 32.3142 42.6005 32.4931C42.5664 32.5442 41.8847 32.8104 41.6717 32.9914C41.1754 33.411 40.9134 34.1522 41.0028 34.7954C41.0476 35.3278 40.9006 35.6579 40.564 35.7836C40.5172 35.8858 40.2168 36.4396 40.1785 36.4396C39.6012 35.9156 39.8461 34.9913 39.4648 34.3545Z" fill="#5E5739"/>
<path d="M48.0353 33.6979C48.0758 34.0536 48.0439 34.4199 47.9395 34.7606C47.7818 35.2739 47.3814 36.2153 46.9383 36.4432C46.6742 36.7413 46.2183 37.0459 45.8391 37.1013C45.6879 37.0331 45.7624 36.8393 45.7284 36.7712C45.6368 36.5156 45.6389 36.2323 45.7326 35.9214C45.6644 35.4592 45.7369 35.1206 45.9499 34.9033C45.9499 34.8522 46.0713 34.7393 46.0394 34.5477C46.0223 34.4369 45.7028 33.8044 45.6197 33.6958C45.5196 33.519 45.5196 33.4317 45.7305 33.4764C45.4749 33.2357 45.8434 32.7097 46.1693 32.8183C46.7018 32.9503 47.7776 33.1825 48.0375 33.6979H48.0353Z" fill="#6A6447"/>
<path d="M45.6185 40.0676C45.5141 40.1017 45.3096 40.0442 45.1797 40.0676V39.7417C45.8166 38.8281 46.2895 37.8164 46.5984 36.7047L46.9371 36.4427C47.3077 35.5397 47.8509 34.6644 48.0363 33.6953C48.4602 34.5387 47.8424 36.9901 47.4611 37.8995C47.1373 38.6683 46.4578 39.7971 45.6185 40.0676Z" fill="#2E2A19"/>
<path d="M46.3859 32.2676C45.9876 32.1782 46.2432 32.5807 46.1665 32.8171C46.1537 32.8554 45.8299 33.2665 45.7277 33.4752C45.683 33.5199 45.6489 33.554 45.6446 33.5519C45.0865 33.094 44.8224 32.7915 45.0695 32.0482C45.0652 32.012 45.0759 31.9716 45.0695 31.9375C45.536 31.9524 45.9556 32.142 46.388 32.2676H46.3859Z" fill="#41350C"/>
<path d="M46.9372 36.4424C46.4302 37.6755 46.1363 39.0897 45.1798 40.0673C44.8006 40.1354 44.5173 40.1269 44.1914 40.178C44.332 39.9672 44.2404 39.4475 44.3192 39.3176C44.3448 39.275 44.9838 39.0024 45.1841 38.8086C45.8359 38.1803 45.6719 37.8033 45.8402 37.1026C45.9254 36.7469 46.6049 36.4914 46.9393 36.4445L46.9372 36.4424Z" fill="#5B4E24"/>
<path d="M42.6504 31.7194C42.7718 31.3254 43.3811 31.2466 43.5067 31.6853C43.6431 32.1603 43.2511 32.5777 44.0095 32.6054C44.2417 32.5713 44.0627 31.7279 44.4057 31.5512C44.7486 31.3744 44.9957 31.6108 45.066 31.9388C45.1619 31.975 45.1619 32.0112 45.066 32.0495C44.8509 32.6544 45.0426 33.1591 45.639 33.5617L45.6156 33.6958C46.0438 33.5659 46.5912 34.9439 45.9458 34.9034C45.8201 35.5658 45.2343 35.1803 44.9531 34.782V35.7255C45.4708 36.0237 45.7285 36.3709 45.7264 36.7713C45.8542 36.7585 45.8904 36.8692 45.8372 37.1014C46.1801 37.293 45.9096 38.0811 45.7626 38.4176C45.5474 38.9117 44.9723 39.2673 44.4824 39.442C44.5782 39.8488 44.4802 40.0937 44.1884 40.1768C44.1074 40.1895 43.9754 40.3961 43.8028 40.3961C43.6303 40.3961 43.5067 40.1938 43.4173 40.1768C43.2596 40.1278 43.1574 39.9723 43.1105 39.7082C42.889 39.8317 42.6611 39.9893 42.4289 40.1768C42.0859 40.1555 42.0305 39.9936 41.8793 39.9574C41.7344 39.8722 41.6407 39.6976 41.596 39.4356C40.9867 38.9138 40.1645 37.8681 40.8887 37.2121C40.9399 36.6584 41.777 36.7883 41.8516 37.3612C42.1179 36.5072 42.0412 36.3091 41.3105 35.7852C41.0208 35.4955 40.7822 35.2122 40.9974 34.7948C40.5287 34.6415 40.8589 33.7725 41.0464 33.4211C41.3638 32.829 41.8345 32.5969 42.4267 32.3413C42.4012 32.1539 42.4736 31.9835 42.6461 31.828C42.6525 31.7897 42.6376 31.7492 42.6461 31.7173L42.6504 31.7194Z" fill="#FFFE0E"/>
<path d="M42.4297 40.1769C42.713 39.653 42.713 39.4017 43.4181 39.5167V40.1769C43.0602 40.1109 42.7087 40.194 42.4297 40.1769Z" fill="#6B5415"/>
<path d="M41.0013 34.7949C41.1206 35.6468 42.1793 36.0643 42.2113 36.3901C42.2517 36.8076 41.9727 37.7191 41.9897 38.2004C41.3826 37.8277 42.0153 36.7139 40.8927 37.2122C40.8629 36.8906 40.816 36.371 40.7606 36.0771C40.7372 35.9535 40.6711 35.8492 40.5625 35.7831C40.7052 35.4765 40.7372 35.042 41.0013 34.7949Z" fill="#605017"/>
<path d="M45.9445 34.9021C45.9509 35.5304 46.0319 36.1991 45.7251 36.7699C45.5675 36.4483 44.7516 35.8796 44.7346 35.8136C44.6813 35.6177 44.6898 34.2418 44.9007 34.2461C45.052 34.2482 45.314 35.426 45.9445 34.9021Z" fill="#85722C"/>
<path d="M43.7488 36.4422C43.5549 37.0599 43.6955 37.9906 43.5123 38.5678C43.4314 38.8233 43.082 38.7445 42.869 38.7488C42.788 38.67 43.0117 36.5977 43.0756 36.5061C43.1821 36.357 43.5677 36.472 43.7466 36.4422H43.7488Z" fill="#8A7015"/>
<path d="M43.9524 33.4932C44.1483 33.7999 43.7308 35.1204 43.8586 35.5634H43.1983C43.1259 35.4931 43.2856 33.67 43.3261 33.5465C43.4134 33.276 43.8821 33.3825 43.9524 33.4911V33.4932Z" fill="#907414"/>
<path d="M42.4314 33.5859C42.4634 34.1418 42.4165 34.6977 42.2674 35.2323C41.6795 34.8808 41.7093 33.7414 42.4314 33.5859Z" fill="#816915"/>
<path d="M44.4102 38.3082C44.4357 37.9248 44.4826 37.5394 44.5231 37.156C44.5358 37.0367 44.4485 36.7897 44.6828 36.8813C45.2281 37.0964 44.9193 38.1314 44.4102 38.3082Z" fill="#9A811E"/>
<path d="M45.0672 32.0469C45.0971 32.3067 45.0332 32.5878 45.0672 32.8498L45.7255 33.476C45.6893 33.5505 45.6509 33.6229 45.6147 33.6953C45.227 33.182 44.5773 33.0606 45.0651 32.0469H45.0672Z" fill="#675430"/>
<path d="M45.6172 48.1924C47.7197 48.1988 50.2887 48.793 51.8778 50.2242C51.8735 50.6629 49.7625 50.6395 49.4089 50.6076C47.8326 50.4606 46.4011 49.5512 45.6172 48.1945V48.1924Z" fill="#FA9C96"/>
<path d="M53.6382 48.1937C53.4592 48.4749 52.4346 49.8784 52.1705 49.8336C50.8583 48.6261 48.5364 47.9488 46.7705 47.755C46.3679 47.7103 45.6841 47.8423 45.3603 47.7358C45.1707 47.6719 44.8917 46.9606 44.7383 46.7646C45.2921 46.9542 45.8161 47.2162 46.387 47.3674C47.3754 47.6272 48.8304 47.7976 49.8528 47.7571C50.396 47.7358 51.557 47.3844 51.934 47.4227C52.2173 47.4504 52.9821 48.477 53.6382 48.1937Z" fill="#450627"/>
<path d="M57.8112 69.0766C59.1653 69.0766 60.263 67.9791 60.263 66.6252C60.263 65.2713 59.1653 64.1738 57.8112 64.1738C56.4571 64.1738 55.3594 65.2713 55.3594 66.6252C55.3594 67.9791 56.4571 69.0766 57.8112 69.0766Z" fill="#F5E290"/>
<path d="M55.2876 65.2203C54.9937 65.7911 54.8957 66.4492 54.9575 67.0881C54.7807 67.2031 54.8403 67.5439 54.8467 67.7462C54.5506 66.8368 54.7743 65.9125 55.1769 65.1096C55.3302 64.9647 55.3878 65.0244 55.2876 65.2203Z" fill="#939494"/>
<path d="M55.1779 65.1136C55.4016 64.6664 55.5976 64.283 56.0555 64.0146C56.1131 64.545 55.5635 64.6855 55.2866 65.2222L55.1758 65.1115L55.1779 65.1136Z" fill="#C7CFD0"/>
<path d="M57.8147 63.4648C57.8168 63.9419 57.2459 63.7737 56.9371 63.7928C56.8774 63.4073 57.6017 63.4947 57.8147 63.4648Z" fill="#A69762"/>
<path d="M57.7623 68.5982C58.8176 68.5982 59.6731 67.7428 59.6731 66.6878C59.6731 65.6327 58.8176 64.7773 57.7623 64.7773C56.707 64.7773 55.8516 65.6327 55.8516 66.6878C55.8516 67.7428 56.707 68.5982 57.7623 68.5982Z" fill="#060504"/>
<path d="M58.6954 65.5521C58.7253 65.6309 58.7998 65.6671 58.9149 65.6629C59.0128 65.7672 59.2024 66.076 59.245 66.2123C59.113 66.3274 59.113 66.3636 59.245 66.3231C59.2727 66.4487 59.3515 66.9258 59.3345 67.0131C59.326 67.0557 58.9532 67.733 58.917 67.7522C58.7146 67.5498 58.6784 67.5498 58.8062 67.7522C58.312 68.3996 57.5473 68.2463 56.9381 67.8629C56.8954 67.7628 56.823 67.7287 56.7186 67.7522C56.5738 67.6073 56.4524 67.3944 56.3885 67.2027C56.4296 67.0877 56.4296 67.0877 56.3885 67.2027C56.2777 66.8704 56.2053 66.683 56.3054 66.2954C56.3736 66.0335 57.0296 65.2582 57.2618 65.1751C57.3044 65.1602 58.0798 65.1709 58.1501 65.1858C58.3631 65.2263 58.5378 65.4307 58.6976 65.5564L58.6954 65.5521Z" fill="#212626"/>
<path d="M58.9102 67.7499C58.8954 67.7584 58.8191 67.7563 58.8 67.7499C58.3062 67.6114 58.7534 67.0534 58.9102 67.7499Z" fill="#958B5F"/>
<path d="M56.7148 67.7497C56.9035 67.3664 57.2129 67.4835 56.9331 67.8605C56.878 67.8243 56.7975 67.8349 56.7148 67.7497Z" fill="#8E7F58"/>
<path d="M59.2407 66.2119C59.2513 66.2439 59.2323 66.2864 59.2407 66.3227C58.8126 66.6059 58.7978 66.2758 59.2407 66.2119Z" fill="#B5AD72"/>
<path d="M58.9112 65.6615C58.6526 65.8404 58.4725 65.8426 58.6929 65.5508C58.7289 65.5806 58.8306 65.5763 58.9112 65.6615Z" fill="#ACA26D"/>
<path d="M56.7148 66.7597L58.0313 67.0898C58.1719 66.9855 58.1421 65.8844 58.4701 65.7715C58.4403 66.0398 58.304 67.1473 58.1485 67.2645C58.0015 67.3731 56.8405 67.0131 56.7148 66.7618V66.7597Z" fill="#ACA26D"/>
<path d="M56.385 67.198C56.3573 66.968 56.3743 66.9488 56.6044 66.9786L56.385 67.198Z" fill="#BAB074"/>
<path d="M47.1548 78.8422C47.1378 85.5424 46.6308 92.2342 45.947 98.8919L46.0535 99.8247C46.6585 97.0219 46.8012 94.1595 47.0441 91.312C47.3679 87.5274 47.8344 83.566 47.698 79.7814C47.6853 79.4172 47.6704 79.0402 47.8024 78.6931L56.713 75.8775C56.0718 81.6407 55.584 87.4422 54.6083 93.1607C54.0651 96.3447 53.1982 99.4691 52.7487 102.672C49.4491 103.002 46.126 102.875 42.8093 102.907C38.289 102.54 33.4322 102.453 29.0505 101.173C28.6606 101.058 26.8053 100.449 26.6348 100.238C26.5837 100.174 26.1896 98.7513 26.1854 98.6406C26.1705 98.2615 26.5262 98.336 26.064 97.7887C24.658 88.5263 23.7058 79.1446 23.3075 69.7864C23.2436 68.3083 23.2628 66.8132 23.2031 65.333L24.8711 68.6618C27.0161 72.3634 30.7567 75.1491 34.4462 77.215C36.0524 78.1159 39.0602 79.6557 40.8517 79.8197C42.7539 79.9944 45.2441 79.0424 47.157 78.8443L47.1548 78.8422Z" fill="#15181A"/>
<path d="M35.6193 57.2001L34.026 58.9551C32.5285 57.4472 31.065 55.2897 28.9732 54.5613C28.8667 54.5251 28.6601 54.3569 28.5876 54.5081C32.8096 57.4514 35.434 62.0304 38.8593 65.7703C39.2747 66.224 39.8137 66.8139 40.3441 67.0887C40.4485 67.2377 39.6539 67.4805 39.5389 67.5444C38.7763 67.9832 38.069 68.6945 37.7069 69.5017L40.0842 67.8703C40.719 67.6019 41.4028 67.4017 42.1015 67.4166C41.0705 68.5199 39.7753 69.7125 39.9053 71.3695C40.9086 69.9426 41.6797 68.3601 43.2113 67.3698L54.8485 64.2305C52.9292 67.6893 55.1914 71.9999 56.7166 75.2138C53.515 76.0614 50.4134 77.2349 47.2054 78.0634C42.5659 79.2603 41.2579 79.5116 36.7909 77.5075C30.4388 74.6558 23.6882 69.0161 22.9064 61.6194C22.3121 55.9947 26.6364 53.0045 31.4463 51.5967L32.5711 56.4611C32.7862 56.8892 33.3486 57.2001 33.8108 57.2001H35.6236H35.6193Z" fill="#15181A"/>
<path d="M63.6353 70.0558C65.6122 77.3865 66.2853 85.0409 66.1724 92.6336C65.8401 94.9125 66.0616 97.6215 65.593 99.8557C65.3714 100.912 63.1518 101.427 62.2124 101.638C59.3324 102.288 56.2521 102.416 53.3125 102.68C53.6022 101.183 53.9814 99.6959 54.269 98.1987C55.4235 92.1949 56.3949 86.1889 57.0467 80.1041C57.1873 78.7837 57.1127 76.5772 57.4046 75.408C57.4344 75.2844 58.4526 73.2292 58.5336 73.1312C58.7913 72.8203 59.5901 72.9651 58.8062 72.1409C59.2088 72.0472 60.5423 71.7831 60.7873 71.5382C61.0024 71.3252 60.8278 70.9227 60.9045 70.8311C60.9961 70.7225 63.2903 70.1538 63.6375 70.0537L63.6353 70.0558Z" fill="#15181A"/>
<path d="M40.1631 66.279L34.5373 59.534C34.4968 59.4403 34.533 59.3721 34.5714 59.2891C34.7588 58.878 36.1967 57.7982 36.4608 57.2168C36.8762 57.2445 38.0414 57.0635 38.312 57.3062L43.8568 66.5899C43.0239 67.3822 40.9236 66.9584 40.161 66.2769L40.1631 66.279Z" fill="#15181A"/>
<path d="M57.8123 62.8042C57.8038 61.4007 57.8442 59.9759 57.7015 58.5766C57.661 58.1805 57.5971 57.6097 57.497 57.237C57.4459 57.0475 57.5758 56.9324 57.2627 56.9836L57.1519 62.915C56.3403 62.998 55.5479 63.326 54.7342 63.4645C54.5893 63.3452 56.5597 60.8406 56.6002 60.2166C56.6364 59.6436 55.2305 58.1869 54.8599 57.68L54.8492 57.4308C55.4776 57.0709 56.9453 57.0602 56.4745 56.0699C56.3233 55.7526 54.8662 54.1403 54.9557 54.021C55.2007 53.972 55.3562 53.8464 55.6118 53.9635C55.7609 54.0317 57.2648 55.5864 57.48 55.8356C58.1574 56.6172 58.8646 57.6566 59.3694 58.5596C59.6442 59.0516 60.4494 60.5573 60.5432 61.0237C60.573 61.1686 60.5709 61.241 60.507 61.3773C60.4686 61.4625 59.3354 62.7148 59.248 62.7489C59.0393 62.8255 58.1744 62.5593 57.8144 62.8085L57.8123 62.8042Z" fill="#15181A"/>
<path d="M54.3965 57.7658C54.4156 57.7785 54.5008 58.0746 54.5797 58.1832C54.8545 58.5687 55.7342 59.657 55.8684 59.9807C55.9259 60.1213 55.9621 60.2129 55.8684 60.3513L53.751 63.7355C53.4848 63.9336 50.6878 64.7855 50.5664 64.6705C51.427 62.7622 51.7742 60.6793 52.1619 58.6304C52.4836 58.4366 54.1685 57.6167 54.3986 57.7636L54.3965 57.7658Z" fill="#15181A"/>
<path d="M37.9247 56.7621L33.2192 56.5257L31.9922 51.4909C32.0966 51.3929 33.9605 52.428 34.2608 52.5728C34.9489 52.9072 35.6987 53.1841 36.3889 53.5206L37.9247 56.7621Z" fill="#15181A"/>
<path d="M52.3203 57.7491L52.4417 54.7951C52.757 54.6716 53.1426 54.7227 53.4472 54.6482C53.722 54.5821 54.0117 54.2393 54.2971 54.3926L55.833 56.2668L52.3203 57.7491Z" fill="#15181A"/>
</g>
<path d="M89.1761 2.8877C88.6691 2.8877 88.6904 5.45408 87.3803 7.18132C86.2428 8.67856 84.4727 9.10238 84.4727 9.73492C84.4727 10.3164 86.2066 10.2652 87.4336 11.7816C88.5008 13.1021 88.8033 15.4555 89.2847 15.4555C89.7662 15.4555 89.6873 13.2682 90.9335 11.6794C92.2052 10.0586 93.8816 9.94577 93.8816 9.40481C93.8816 8.86385 91.9581 8.38252 90.9015 6.88316C89.7874 5.30286 89.7385 2.8877 89.1761 2.8877Z" fill="#FFA106"/>
<path d="M5.67646 75.0377C5.1993 75.174 5.91078 77.5806 5.14391 79.5549C4.47717 81.2694 2.92853 82.1426 3.09894 82.7368C3.25445 83.282 4.86912 82.7688 6.43267 83.8635C7.79173 84.8155 8.7077 86.9474 9.16143 86.8196C9.61516 86.6918 8.95054 84.6557 9.69611 82.8263C10.4544 80.9627 12.001 80.4047 11.8561 79.8957C11.7113 79.3867 9.77492 79.4527 8.3754 78.326C6.90344 77.1419 6.20687 74.8843 5.68072 75.0356L5.67646 75.0377Z" fill="#FFA106"/>
<path d="M2.79697 70.4658C2.94821 70.3678 2.44336 69.6096 2.49661 68.8408C2.54347 68.1742 2.98868 67.7056 2.86513 67.5182C2.75223 67.3457 2.24738 67.6971 1.58703 67.4841C1.01401 67.2988 0.466552 66.6578 0.32383 66.7515C0.181108 66.8452 0.628445 67.4799 0.56667 68.1933C0.502764 68.9217 0.0277347 69.2817 0.132113 69.4414C0.236492 69.6011 0.901107 69.3711 1.50821 69.6118C2.14513 69.8652 2.62868 70.5723 2.79697 70.4637V70.4658Z" fill="#FFA106"/>
<g style="mix-blend-mode:hard-light" opacity="0.36">
<path d="M26.114 51.9961C43.6411 40.2035 61.1703 28.4067 78.9701 17.0294C78.608 16.5651 78.2352 16.1094 77.8539 15.6621C54.2814 31.4629 30.3552 46.7313 6.64844 62.334C6.98288 63.0156 7.34074 63.6822 7.7114 64.3424C13.8527 60.2405 19.9855 56.1215 26.114 51.9982V51.9961Z" fill="#FFF2B7"/>
</g>
<g style="mix-blend-mode:hard-light" opacity="0.36">
<path d="M3.76953 54.6837C4.07202 55.8018 4.41284 56.9029 4.80267 57.9806C11.4062 53.6358 18.0247 49.3102 24.6495 44.9996C41.3374 34.1377 58.055 23.3121 74.6001 12.2351C73.4498 11.1511 72.2398 10.1309 70.9745 9.17676C59.0732 16.6863 14.6207 47.5468 3.76953 54.6858V54.6837Z" fill="#FFF2B7"/>
</g>
<g style="mix-blend-mode:multiply" opacity="0.37">
<path d="M36.9727 85.536C39.6269 86.0492 42.3641 86.324 45.1675 86.324C67.1168 86.324 85.2148 69.8416 87.7582 48.5801C70.8553 60.9349 53.9885 73.3387 36.9727 85.536Z" fill="#FFBB1E"/>
</g>
<defs>
<filter id="filter0_d_312_5869" x="2.72266" y="0.825195" width="87.8008" height="87.7832" filterUnits="userSpaceOnUse" color-interpolation-filters="sRGB">
<feFlood flood-opacity="0" result="BackgroundImageFix"/>
<feColorMatrix in="SourceAlpha" type="matrix" values="0 0 0 0 0 0 0 0 0 0 0 0 0 0 0 0 0 0 127 0" result="hardAlpha"/>
<feOffset dx="2" dy="2"/>
<feColorMatrix type="matrix" values="0 0 0 0 0.870588 0 0 0 0 0.537255 0 0 0 0 0 0 0 0 1 0"/>
<feBlend mode="normal" in2="BackgroundImageFix" result="effect1_dropShadow_312_5869"/>
<feBlend mode="normal" in="SourceGraphic" in2="effect1_dropShadow_312_5869" result="shape"/>
</filter>
</defs>
</svg>
