<svg width="71" height="33" viewBox="0 0 71 33" fill="none" xmlns="http://www.w3.org/2000/svg">
<g filter="url(#filter0_d_312_5297)">
<path d="M2.98707 15.75C1.68038 14.4433 1.68038 12.3247 2.98707 11.018C4.29376 9.71131 6.41233 9.71131 7.71902 11.018L21.3891 24.6881C22.6958 25.9948 22.6958 28.1133 21.3891 29.42C20.0824 30.7267 17.9638 30.7267 16.6572 29.42L2.98707 15.75Z" fill="white"/>
</g>
<g filter="url(#filter1_d_312_5297)">
<path d="M32.1875 3.34599C32.1875 1.49805 33.6856 0 35.5335 0C37.3814 0 38.8795 1.49805 38.8795 3.34599V20.4478C38.8795 22.2957 37.3814 23.7937 35.5335 23.7937C33.6856 23.7937 32.1875 22.2957 32.1875 20.4478V3.34599Z" fill="white"/>
</g>
<g filter="url(#filter2_d_312_5297)">
<path d="M63.2825 11.2886C64.5892 9.98194 66.7077 9.98194 68.0144 11.2886C69.3211 12.5953 69.3211 14.7139 68.0144 16.0206L54.3443 29.6907C53.0376 30.9974 50.9191 30.9974 49.6124 29.6907C48.3057 28.384 48.3057 26.2654 49.6124 24.9587L63.2825 11.2886Z" fill="white"/>
</g>
<defs>
<filter id="filter0_d_312_5297" x="2.00781" y="10.038" width="22.3594" height="22.3621" filterUnits="userSpaceOnUse" color-interpolation-filters="sRGB">
<feFlood flood-opacity="0" result="BackgroundImageFix"/>
<feColorMatrix in="SourceAlpha" type="matrix" values="0 0 0 0 0 0 0 0 0 0 0 0 0 0 0 0 0 0 127 0" result="hardAlpha"/>
<feOffset dx="2" dy="2"/>
<feComposite in2="hardAlpha" operator="out"/>
<feColorMatrix type="matrix" values="0 0 0 0 0.192157 0 0 0 0 0.121569 0 0 0 0 0.0980392 0 0 0 1 0"/>
<feBlend mode="normal" in2="BackgroundImageFix" result="effect1_dropShadow_312_5297"/>
<feBlend mode="normal" in="SourceGraphic" in2="effect1_dropShadow_312_5297" result="shape"/>
</filter>
<filter id="filter1_d_312_5297" x="32.1875" y="0" width="8.69141" height="25.7937" filterUnits="userSpaceOnUse" color-interpolation-filters="sRGB">
<feFlood flood-opacity="0" result="BackgroundImageFix"/>
<feColorMatrix in="SourceAlpha" type="matrix" values="0 0 0 0 0 0 0 0 0 0 0 0 0 0 0 0 0 0 127 0" result="hardAlpha"/>
<feOffset dx="2" dy="2"/>
<feComposite in2="hardAlpha" operator="out"/>
<feColorMatrix type="matrix" values="0 0 0 0 0.192157 0 0 0 0 0.121569 0 0 0 0 0.0980392 0 0 0 1 0"/>
<feBlend mode="normal" in2="BackgroundImageFix" result="effect1_dropShadow_312_5297"/>
<feBlend mode="normal" in="SourceGraphic" in2="effect1_dropShadow_312_5297" result="shape"/>
</filter>
<filter id="filter2_d_312_5297" x="48.6328" y="10.3086" width="22.3633" height="22.3621" filterUnits="userSpaceOnUse" color-interpolation-filters="sRGB">
<feFlood flood-opacity="0" result="BackgroundImageFix"/>
<feColorMatrix in="SourceAlpha" type="matrix" values="0 0 0 0 0 0 0 0 0 0 0 0 0 0 0 0 0 0 127 0" result="hardAlpha"/>
<feOffset dx="2" dy="2"/>
<feComposite in2="hardAlpha" operator="out"/>
<feColorMatrix type="matrix" values="0 0 0 0 0.192157 0 0 0 0 0.121569 0 0 0 0 0.0980392 0 0 0 1 0"/>
<feBlend mode="normal" in2="BackgroundImageFix" result="effect1_dropShadow_312_5297"/>
<feBlend mode="normal" in="SourceGraphic" in2="effect1_dropShadow_312_5297" result="shape"/>
</filter>
</defs>
</svg>
